<svg id="svg" version="1.1" xmlns="http://www.w3.org/2000/svg" xmlns:xlink="http://www.w3.org/1999/xlink" width="400" height="284" viewBox="0, 0, 400,284"><g id="svgg"><path id="path0" d="M14.000 24.352 C 14.000 24.473,13.854 24.717,13.676 24.895 C 13.498 25.073,13.401 25.268,13.460 25.327 C 13.520 25.386,13.722 25.199,13.911 24.911 C 14.100 24.623,14.197 24.330,14.127 24.260 C 14.057 24.191,14.000 24.232,14.000 24.352 M282.899 151.000 C 282.899 213.315,282.922 238.808,282.950 207.650 C 282.978 176.493,282.978 125.508,282.950 94.350 C 282.922 63.193,282.899 88.685,282.899 151.000 M46.663 51.550 C 46.594 51.742,46.501 51.990,46.454 52.100 C 46.408 52.210,46.512 52.125,46.685 51.912 C 47.000 51.524,47.095 51.200,46.894 51.200 C 46.835 51.200,46.731 51.358,46.663 51.550 M127.800 137.924 C 127.800 138.034,127.932 138.298,128.094 138.512 C 128.255 138.725,128.387 138.810,128.387 138.700 C 128.387 138.590,128.255 138.325,128.094 138.112 C 127.932 137.898,127.800 137.814,127.800 137.924 M317.016 147.776 C 316.999 148.062,317.755 149.400,317.933 149.400 C 317.988 149.400,317.857 149.108,317.641 148.750 C 317.426 148.393,317.201 147.965,317.141 147.800 C 317.057 147.570,317.028 147.565,317.016 147.776 M81.944 170.815 C 82.189 171.069,82.439 171.227,82.501 171.166 C 82.562 171.104,82.362 170.896,82.056 170.703 L 81.500 170.352 81.944 170.815 M182.834 248.390 C 182.717 248.725,182.663 249.000,182.715 249.000 C 182.850 249.000,183.228 247.961,183.129 247.862 C 183.083 247.817,182.951 248.054,182.834 248.390 " stroke="none" fill="#6c24ac" fill-rule="evenodd"></path><path id="path1" d="M17.887 20.250 L 17.300 20.900 17.950 20.313 C 18.308 19.990,18.600 19.697,18.600 19.663 C 18.600 19.508,18.435 19.644,17.887 20.250 M184.294 69.800 C 184.294 76.455,184.319 79.178,184.350 75.850 C 184.381 72.523,184.381 67.078,184.350 63.750 C 184.319 60.423,184.294 63.145,184.294 69.800 M188.098 187.700 C 188.098 207.170,188.121 215.105,188.150 205.334 C 188.179 195.563,188.179 179.633,188.150 169.934 C 188.121 160.235,188.098 168.230,188.098 187.700 " stroke="none" fill="#6c1cac" fill-rule="evenodd"></path><path id="path2" d="" stroke="none" fill="#7424ac" fill-rule="evenodd"></path><path id="path3" d="M143.093 71.400 C 143.093 77.175,143.119 79.538,143.150 76.650 C 143.181 73.762,143.181 69.037,143.150 66.150 C 143.119 63.263,143.093 65.625,143.093 71.400 M146.157 92.302 C 146.270 92.523,146.574 92.883,146.831 93.101 C 147.283 93.483,147.282 93.476,146.803 92.899 C 146.007 91.939,145.939 91.877,146.157 92.302 M262.053 280.744 C 262.357 280.789,262.807 280.788,263.053 280.741 C 263.299 280.693,263.050 280.656,262.500 280.657 C 261.950 280.659,261.749 280.698,262.053 280.744 " stroke="none" fill="#6c24b4" fill-rule="evenodd"></path><path id="path4" d="M57.949 2.518 C 57.882 2.584,57.079 2.672,56.164 2.712 C 55.249 2.752,54.275 2.840,54.000 2.907 C 53.725 2.975,53.185 3.068,52.800 3.115 C 51.909 3.224,51.100 3.358,51.100 3.397 C 51.100 3.414,50.875 3.459,50.600 3.498 C 50.129 3.564,49.709 3.646,48.649 3.878 C 48.401 3.933,48.099 4.039,47.978 4.113 C 47.857 4.188,47.430 4.293,47.029 4.347 C 46.628 4.401,46.255 4.502,46.200 4.572 C 46.145 4.642,45.999 4.719,45.876 4.741 C 45.752 4.764,45.407 4.827,45.108 4.881 C 44.810 4.935,44.438 5.085,44.283 5.214 C 44.127 5.343,44.000 5.394,44.000 5.326 C 44.000 5.218,43.611 5.338,42.100 5.913 C 41.880 5.997,41.655 6.078,41.600 6.093 C 40.998 6.256,40.471 6.501,40.254 6.718 C 40.108 6.864,39.856 6.932,39.694 6.870 C 39.532 6.808,39.400 6.850,39.400 6.963 C 39.400 7.076,39.108 7.232,38.750 7.309 C 38.393 7.387,38.046 7.535,37.979 7.640 C 37.913 7.744,37.601 7.857,37.287 7.892 C 36.972 7.926,36.682 8.055,36.641 8.178 C 36.599 8.302,36.484 8.352,36.383 8.289 C 36.282 8.227,36.200 8.272,36.200 8.388 C 36.200 8.505,36.038 8.600,35.840 8.600 C 35.642 8.600,35.373 8.707,35.243 8.837 C 35.112 8.968,34.809 9.105,34.568 9.141 C 34.328 9.178,34.003 9.315,33.846 9.445 C 33.688 9.576,33.413 9.704,33.233 9.730 C 33.054 9.757,32.875 9.874,32.837 9.990 C 32.798 10.107,32.691 10.156,32.599 10.099 C 32.507 10.043,32.290 10.139,32.116 10.312 C 31.942 10.486,31.799 10.555,31.797 10.464 C 31.795 10.374,31.728 10.390,31.647 10.500 C 31.492 10.711,30.917 11.029,27.762 12.652 C 26.695 13.200,25.638 13.821,25.412 14.032 C 25.185 14.243,24.997 14.345,24.994 14.258 C 24.990 14.171,24.855 14.275,24.694 14.488 C 24.532 14.702,24.400 14.807,24.400 14.721 C 24.400 14.636,24.053 14.842,23.628 15.178 C 23.203 15.514,22.805 15.738,22.743 15.676 C 22.680 15.614,22.486 15.841,22.310 16.181 C 22.134 16.522,21.857 16.800,21.695 16.800 C 21.533 16.800,21.400 16.880,21.400 16.977 C 21.400 17.074,21.211 17.203,20.980 17.263 C 20.749 17.324,20.619 17.469,20.692 17.587 C 20.764 17.704,20.683 17.800,20.512 17.800 C 20.340 17.800,20.200 17.884,20.200 17.987 C 20.200 18.089,20.034 18.226,19.830 18.290 C 19.627 18.355,19.359 18.632,19.234 18.905 C 19.109 19.179,18.938 19.379,18.854 19.351 C 18.769 19.323,18.686 19.376,18.670 19.469 C 18.612 19.785,17.539 20.786,17.369 20.681 C 17.276 20.624,17.200 20.717,17.200 20.888 C 17.200 21.060,17.132 21.178,17.050 21.150 C 16.967 21.123,16.900 21.163,16.900 21.239 C 16.900 21.316,16.460 21.789,15.922 22.289 C 15.384 22.790,15.024 23.203,15.122 23.206 C 15.220 23.209,15.143 23.304,14.950 23.416 C 14.758 23.528,14.600 23.709,14.600 23.818 C 14.600 24.055,14.311 24.434,13.500 25.260 C 13.170 25.597,13.035 25.803,13.200 25.719 C 13.365 25.634,13.307 25.731,13.071 25.933 C 12.836 26.135,12.582 26.502,12.508 26.750 C 12.434 26.997,12.289 27.200,12.187 27.200 C 12.084 27.200,12.000 27.294,12.000 27.408 C 12.000 27.523,11.820 27.810,11.600 28.046 C 11.380 28.282,11.200 28.634,11.200 28.828 C 11.200 29.022,11.085 29.252,10.945 29.340 C 10.595 29.560,10.000 30.524,10.000 30.872 C 10.000 31.029,9.856 31.213,9.679 31.280 C 9.496 31.351,9.408 31.531,9.473 31.702 C 9.536 31.866,9.506 32.000,9.407 32.000 C 9.241 32.000,9.006 32.495,9.004 32.851 C 9.003 32.934,8.732 33.481,8.401 34.067 C 8.071 34.653,7.800 35.283,7.800 35.466 C 7.800 35.650,7.700 35.800,7.579 35.800 C 7.457 35.800,7.409 35.935,7.472 36.100 C 7.536 36.265,7.491 36.400,7.372 36.400 C 7.254 36.400,7.209 36.535,7.272 36.700 C 7.336 36.865,7.300 37.000,7.194 37.000 C 7.087 37.000,7.000 37.175,7.000 37.388 C 7.000 37.602,6.914 37.830,6.809 37.895 C 6.704 37.960,6.668 38.145,6.730 38.306 C 6.793 38.470,6.730 38.600,6.588 38.600 C 6.448 38.600,6.390 38.657,6.460 38.726 C 6.529 38.796,6.484 39.042,6.360 39.274 C 6.236 39.506,6.106 39.877,6.071 40.098 C 6.036 40.319,5.864 40.995,5.688 41.600 C 5.513 42.205,5.337 42.925,5.298 43.200 C 5.259 43.475,5.170 43.925,5.100 44.200 C 5.030 44.475,4.930 44.970,4.878 45.300 C 4.700 46.425,4.681 46.507,4.546 46.725 C 4.472 46.845,4.452 47.148,4.500 47.400 C 4.548 47.652,4.523 47.957,4.444 48.079 C 4.365 48.200,4.282 48.525,4.258 48.800 C 4.235 49.075,4.162 49.885,4.095 50.600 C 4.028 51.315,3.916 52.710,3.846 53.700 C 3.672 56.168,3.678 225.678,3.853 227.800 C 3.930 228.735,4.029 230.007,4.075 230.626 C 4.120 231.245,4.229 232.145,4.318 232.626 C 4.407 233.107,4.497 233.725,4.518 234.000 C 4.540 234.275,4.573 234.500,4.592 234.500 C 4.612 234.500,4.662 234.770,4.705 235.100 C 4.748 235.430,4.845 235.925,4.920 236.200 C 5.065 236.728,5.124 236.989,5.282 237.800 C 5.335 238.075,5.437 238.525,5.508 238.800 C 5.579 239.075,5.635 239.457,5.631 239.650 C 5.628 239.843,5.715 240.000,5.824 240.000 C 5.934 240.000,5.966 240.094,5.895 240.209 C 5.824 240.324,5.872 240.545,6.001 240.701 C 6.131 240.857,6.273 241.366,6.318 241.831 C 6.363 242.296,6.512 242.748,6.650 242.835 C 6.787 242.922,6.821 242.995,6.726 242.997 C 6.630 242.999,6.651 243.121,6.774 243.268 C 6.896 243.416,6.945 243.588,6.882 243.651 C 6.819 243.714,6.883 243.976,7.024 244.233 C 7.165 244.490,7.310 244.880,7.346 245.100 C 7.382 245.320,7.500 245.530,7.607 245.567 C 7.715 245.604,7.752 245.716,7.689 245.817 C 7.627 245.918,7.677 246.000,7.800 246.000 C 7.923 246.000,7.968 246.090,7.900 246.200 C 7.832 246.310,7.877 246.400,8.000 246.400 C 8.123 246.400,8.168 246.490,8.100 246.600 C 8.032 246.710,8.077 246.800,8.200 246.800 C 8.323 246.800,8.372 246.884,8.309 246.986 C 8.245 247.089,8.286 247.230,8.400 247.300 C 8.514 247.370,8.555 247.511,8.491 247.614 C 8.428 247.716,8.463 247.800,8.569 247.800 C 8.758 247.800,9.284 248.957,9.229 249.250 C 9.213 249.332,9.290 249.400,9.400 249.400 C 9.510 249.400,9.585 249.468,9.568 249.550 C 9.506 249.835,9.991 250.800,10.195 250.800 C 10.308 250.800,10.387 250.868,10.371 250.950 C 10.302 251.316,10.878 252.428,11.238 252.620 C 11.456 252.737,11.583 252.884,11.520 252.946 C 11.458 253.009,11.562 253.189,11.753 253.345 C 11.989 253.539,12.004 253.590,11.800 253.506 C 11.635 253.437,11.702 253.532,11.950 253.715 C 12.197 253.899,12.400 254.213,12.400 254.413 C 12.400 254.613,12.568 254.895,12.773 255.039 C 12.978 255.182,13.159 255.390,13.175 255.500 C 13.190 255.610,13.574 256.082,14.027 256.550 C 14.480 257.018,14.794 257.400,14.725 257.400 C 14.601 257.400,14.808 257.667,15.723 258.686 C 15.985 258.979,16.200 259.319,16.200 259.442 C 16.200 259.566,16.254 259.612,16.321 259.546 C 16.387 259.479,17.186 260.184,18.095 261.113 C 19.005 262.041,19.850 262.800,19.974 262.800 C 20.099 262.800,20.200 262.929,20.200 263.087 C 20.200 263.244,20.380 263.430,20.600 263.500 C 20.820 263.570,21.087 263.789,21.193 263.986 C 21.298 264.184,21.657 264.458,21.990 264.596 C 22.323 264.734,22.551 264.918,22.497 265.005 C 22.443 265.092,22.804 265.360,23.300 265.600 C 23.817 265.850,24.145 266.127,24.070 266.249 C 23.992 266.375,24.033 266.403,24.171 266.318 C 24.300 266.238,24.456 266.312,24.522 266.486 C 24.588 266.658,24.722 266.748,24.821 266.687 C 24.919 266.626,25.000 266.687,25.000 266.822 C 25.000 266.956,25.051 267.016,25.112 266.954 C 25.174 266.893,25.454 267.054,25.734 267.314 C 26.014 267.573,26.503 267.901,26.821 268.041 C 27.140 268.182,27.400 268.366,27.400 268.449 C 27.400 268.532,27.528 268.600,27.683 268.600 C 27.839 268.600,27.997 268.677,28.033 268.770 C 28.070 268.864,28.492 269.186,28.972 269.486 C 29.451 269.787,29.784 269.936,29.712 269.819 C 29.630 269.687,29.699 269.650,29.890 269.724 C 30.060 269.789,30.200 269.928,30.200 270.033 C 30.200 270.138,30.281 270.174,30.379 270.113 C 30.478 270.052,30.606 270.128,30.666 270.282 C 30.725 270.436,31.049 270.623,31.386 270.697 C 31.724 270.771,32.000 270.893,32.000 270.968 C 32.000 271.164,32.773 271.618,33.272 271.714 C 33.507 271.759,33.729 271.887,33.766 271.998 C 33.803 272.109,33.973 272.200,34.143 272.200 C 34.313 272.200,34.778 272.402,35.176 272.649 C 35.574 272.896,35.945 273.101,36.000 273.104 C 36.055 273.108,36.350 273.278,36.656 273.482 C 36.962 273.687,37.270 273.797,37.340 273.727 C 37.410 273.657,37.642 273.757,37.855 273.950 C 38.068 274.142,38.278 274.278,38.321 274.250 C 38.544 274.109,39.007 274.227,38.901 274.398 C 38.831 274.511,38.912 274.545,39.090 274.476 C 39.265 274.409,39.400 274.463,39.400 274.600 C 39.400 274.734,39.528 274.794,39.685 274.733 C 39.842 274.673,40.082 274.758,40.217 274.921 C 40.353 275.084,40.585 275.172,40.732 275.115 C 40.879 275.059,41.000 275.105,41.000 275.218 C 41.000 275.331,41.090 275.368,41.200 275.300 C 41.310 275.232,41.400 275.277,41.400 275.400 C 41.400 275.523,41.484 275.572,41.586 275.509 C 41.689 275.445,41.822 275.473,41.882 275.571 C 41.942 275.668,42.286 275.816,42.646 275.900 C 43.006 275.983,43.390 276.081,43.500 276.118 C 43.610 276.155,43.835 276.215,44.000 276.252 C 44.165 276.289,44.504 276.432,44.754 276.569 C 45.004 276.706,45.289 276.769,45.387 276.708 C 45.485 276.647,45.597 276.690,45.634 276.803 C 45.672 276.916,45.995 277.029,46.351 277.054 C 46.708 277.079,46.999 277.153,47.000 277.217 C 47.000 277.281,47.113 277.335,47.250 277.338 C 47.388 277.340,48.076 277.492,48.780 277.675 C 49.484 277.857,50.105 277.961,50.161 277.905 C 50.217 277.849,50.361 277.885,50.482 277.984 C 50.690 278.156,51.759 278.351,53.500 278.535 C 53.940 278.582,54.795 278.683,55.400 278.760 C 56.845 278.943,134.741 278.942,136.300 278.758 C 136.960 278.681,137.950 278.563,138.500 278.498 C 139.050 278.432,139.725 278.330,140.000 278.271 C 140.275 278.212,140.703 278.154,140.950 278.142 C 141.197 278.130,141.400 278.051,141.400 277.966 C 141.400 277.882,141.536 277.865,141.703 277.929 C 141.869 277.993,142.116 277.962,142.253 277.860 C 142.389 277.759,142.635 277.686,142.800 277.699 C 142.965 277.712,143.429 277.611,143.832 277.476 C 144.234 277.341,144.617 277.284,144.682 277.349 C 144.747 277.414,144.800 277.356,144.800 277.222 C 144.800 277.087,144.884 277.028,144.986 277.091 C 145.089 277.155,145.226 277.119,145.293 277.012 C 145.359 276.905,145.536 276.865,145.686 276.922 C 145.837 276.980,146.020 276.930,146.094 276.810 C 146.167 276.691,146.310 276.644,146.410 276.706 C 146.510 276.768,146.796 276.705,147.046 276.566 C 147.296 276.428,147.560 276.311,147.633 276.307 C 147.707 276.303,147.828 276.239,147.903 276.164 C 147.978 276.089,148.165 276.076,148.320 276.135 C 148.474 276.194,148.600 276.138,148.600 276.010 C 148.600 275.881,148.684 275.828,148.786 275.891 C 148.889 275.955,149.026 275.919,149.093 275.812 C 149.159 275.705,149.345 275.668,149.506 275.730 C 149.668 275.792,149.800 275.734,149.800 275.600 C 149.800 275.466,149.932 275.408,150.094 275.470 C 150.255 275.532,150.440 275.496,150.505 275.391 C 150.570 275.286,150.798 275.200,151.012 275.200 C 151.225 275.200,151.400 275.110,151.400 275.000 C 151.400 274.890,151.614 274.800,151.876 274.800 C 152.137 274.800,152.462 274.666,152.598 274.502 C 152.734 274.338,152.923 274.253,153.019 274.311 C 153.114 274.370,153.396 274.305,153.646 274.166 C 153.896 274.028,154.145 273.904,154.200 273.892 C 154.702 273.783,156.000 273.116,156.000 272.966 C 156.000 272.862,156.090 272.832,156.200 272.900 C 156.310 272.968,156.400 272.948,156.400 272.856 C 156.400 272.696,157.378 272.222,157.980 272.089 C 158.134 272.054,158.314 271.943,158.380 271.840 C 158.446 271.738,158.703 271.591,158.950 271.513 C 159.198 271.436,159.400 271.284,159.400 271.175 C 159.400 271.066,159.504 271.040,159.630 271.119 C 159.757 271.197,159.960 271.127,160.080 270.963 C 160.201 270.798,160.859 270.391,161.543 270.058 C 162.227 269.725,162.748 269.415,162.702 269.369 C 162.656 269.323,162.804 269.169,163.030 269.028 C 163.369 268.816,163.414 268.817,163.286 269.035 C 163.201 269.181,163.382 269.054,163.690 268.753 C 163.997 268.452,164.327 268.255,164.424 268.315 C 164.521 268.375,164.600 268.323,164.600 268.200 C 164.600 268.077,164.674 268.022,164.764 268.077 C 164.854 268.133,165.050 268.008,165.200 267.800 C 165.350 267.592,165.546 267.467,165.636 267.523 C 165.726 267.578,165.800 267.523,165.800 267.400 C 165.800 267.277,165.882 267.227,165.983 267.290 C 166.084 267.352,166.444 267.125,166.783 266.786 C 167.122 266.447,167.401 266.244,167.403 266.335 C 167.405 266.426,167.472 266.410,167.553 266.300 C 167.786 265.983,168.961 265.200,169.204 265.200 C 169.325 265.200,169.368 265.110,169.300 265.000 C 169.232 264.890,169.314 264.800,169.481 264.800 C 169.649 264.800,169.884 264.617,170.003 264.394 C 170.122 264.171,170.298 264.037,170.393 264.095 C 170.487 264.154,170.760 263.954,170.997 263.651 C 171.235 263.348,171.371 263.235,171.300 263.400 C 171.215 263.596,171.270 263.579,171.457 263.350 C 171.615 263.158,171.841 263.000,171.959 263.000 C 172.077 263.000,172.228 262.828,172.294 262.618 C 172.361 262.408,172.570 262.115,172.758 261.968 C 173.071 261.722,173.076 261.733,172.814 262.100 C 172.573 262.437,173.571 261.427,176.297 258.573 C 176.574 258.283,176.800 257.952,176.800 257.838 C 176.800 257.723,177.047 257.434,177.350 257.196 C 177.652 256.958,177.900 256.702,177.900 256.627 C 177.900 256.552,178.148 256.223,178.452 255.895 C 178.756 255.568,179.054 255.142,179.116 254.950 C 179.177 254.757,179.311 254.600,179.413 254.600 C 179.516 254.600,179.600 254.469,179.600 254.308 C 179.600 254.147,179.764 253.855,179.965 253.658 C 180.464 253.169,181.272 251.801,181.066 251.794 C 180.975 251.791,181.058 251.696,181.250 251.584 C 181.442 251.472,181.600 251.299,181.600 251.199 C 181.600 251.099,181.854 250.586,182.165 250.059 C 182.767 249.038,182.800 248.958,182.800 248.514 C 182.800 248.357,182.943 248.085,183.118 247.910 C 183.293 247.735,183.453 247.481,183.474 247.346 C 183.494 247.211,183.582 246.988,183.667 246.850 C 183.753 246.712,183.751 246.599,183.662 246.597 C 183.573 246.595,183.607 246.526,183.738 246.443 C 183.869 246.360,184.023 246.031,184.081 245.712 C 184.138 245.393,184.268 245.080,184.368 245.016 C 184.468 244.952,184.616 244.585,184.698 244.200 C 184.779 243.815,184.934 243.391,185.040 243.259 C 185.147 243.126,185.176 242.924,185.105 242.809 C 185.034 242.694,185.063 242.600,185.168 242.600 C 185.386 242.600,185.921 240.682,185.851 240.150 C 185.825 239.958,185.904 239.800,186.026 239.800 C 186.147 239.800,186.201 239.624,186.145 239.410 C 186.088 239.195,186.125 238.992,186.225 238.958 C 186.326 238.925,186.421 238.560,186.437 238.149 C 186.452 237.737,186.530 237.400,186.609 237.400 C 186.752 237.400,187.064 235.573,187.088 234.600 C 187.095 234.325,187.172 233.989,187.259 233.854 C 187.347 233.719,187.464 232.954,187.519 232.154 C 187.727 229.151,187.765 228.697,187.815 228.600 C 187.929 228.379,187.944 223.656,187.946 188.300 C 187.948 148.376,187.960 149.507,187.509 147.800 C 187.436 147.525,187.357 147.210,187.333 147.100 C 187.309 146.990,187.218 146.787,187.133 146.650 C 187.047 146.513,187.032 146.310,187.100 146.200 C 187.168 146.090,187.113 146.000,186.978 146.000 C 186.844 146.000,186.794 145.940,186.867 145.866 C 186.941 145.792,186.860 145.516,186.686 145.251 C 186.513 144.987,186.334 144.575,186.288 144.336 C 186.242 144.097,186.113 143.871,186.002 143.834 C 185.891 143.797,185.800 143.639,185.800 143.483 C 185.800 143.328,185.695 143.200,185.567 143.200 C 185.438 143.200,185.386 143.148,185.450 143.083 C 185.514 143.019,185.437 142.817,185.278 142.633 C 183.667 140.774,182.912 140.000,182.706 140.000 C 182.572 140.000,182.301 139.822,182.104 139.605 C 181.908 139.387,181.673 139.255,181.583 139.310 C 181.494 139.366,181.321 139.226,181.200 139.000 C 181.079 138.774,180.894 138.642,180.788 138.707 C 180.683 138.772,180.456 138.685,180.284 138.513 C 180.112 138.341,179.798 138.200,179.586 138.200 C 179.374 138.200,179.200 138.100,179.200 137.979 C 179.200 137.857,179.074 137.806,178.919 137.865 C 178.765 137.924,178.473 137.847,178.269 137.693 C 178.066 137.539,177.703 137.410,177.462 137.406 C 177.221 137.403,176.967 137.309,176.898 137.197 C 176.829 137.085,176.685 137.048,176.577 137.114 C 176.470 137.180,176.274 137.149,176.141 137.044 C 176.009 136.940,175.765 136.843,175.600 136.829 C 175.435 136.816,174.985 136.757,174.600 136.700 C 174.215 136.643,173.720 136.571,173.500 136.542 C 173.280 136.512,173.010 136.432,172.900 136.363 C 172.519 136.125,165.180 136.051,163.300 136.266 C 162.640 136.342,161.671 136.445,161.146 136.497 C 160.622 136.548,160.037 136.670,159.846 136.768 C 159.656 136.866,159.388 136.906,159.250 136.856 C 159.113 136.807,159.000 136.869,159.000 136.995 C 159.000 137.121,158.906 137.166,158.791 137.095 C 158.676 137.024,158.451 137.074,158.291 137.207 C 158.131 137.340,158.000 137.382,158.000 137.300 C 158.000 137.218,157.865 137.263,157.700 137.400 C 157.535 137.537,157.400 137.582,157.400 137.500 C 157.400 137.418,157.287 137.435,157.150 137.538 C 157.013 137.640,156.765 137.713,156.600 137.699 C 156.301 137.674,155.190 138.145,155.000 138.378 C 154.945 138.445,154.372 138.770,153.727 139.100 C 153.082 139.430,152.510 139.813,152.456 139.950 C 152.402 140.087,152.266 140.200,152.155 140.200 C 152.044 140.200,151.614 140.560,151.200 141.000 C 150.786 141.440,150.341 141.800,150.211 141.800 C 150.082 141.800,150.032 141.890,150.100 142.000 C 150.168 142.110,150.145 142.200,150.049 142.200 C 149.954 142.200,149.666 142.483,149.411 142.829 C 149.155 143.174,149.071 143.381,149.223 143.287 C 149.375 143.194,149.252 143.413,148.950 143.774 C 148.441 144.381,148.315 144.662,148.376 145.050 C 148.389 145.133,148.324 145.200,148.232 145.200 C 148.140 145.200,147.959 145.431,147.831 145.713 C 147.645 146.120,147.649 146.193,147.848 146.070 C 147.987 145.985,147.943 146.156,147.750 146.451 C 147.558 146.745,147.400 147.196,147.400 147.453 C 147.400 147.710,147.306 148.014,147.191 148.129 C 147.075 148.245,146.949 148.809,146.909 149.384 C 146.869 149.959,146.784 150.483,146.719 150.548 C 146.654 150.612,146.602 166.693,146.603 186.283 C 146.604 205.872,146.599 221.945,146.592 222.000 C 146.579 222.093,146.496 222.882,146.317 224.600 C 146.277 224.985,146.182 225.453,146.105 225.640 C 146.028 225.828,146.023 226.075,146.094 226.190 C 146.165 226.306,146.136 226.400,146.030 226.400 C 145.923 226.400,145.858 226.557,145.887 226.750 C 145.915 226.942,145.816 227.392,145.666 227.750 C 145.517 228.107,145.452 228.400,145.522 228.400 C 145.592 228.400,145.560 228.513,145.452 228.650 C 145.241 228.918,144.913 230.002,144.967 230.250 C 144.985 230.332,144.900 230.400,144.779 230.400 C 144.657 230.400,144.609 230.535,144.672 230.700 C 144.736 230.865,144.695 231.000,144.582 231.000 C 144.469 231.000,144.432 231.090,144.500 231.200 C 144.568 231.310,144.523 231.400,144.400 231.400 C 144.277 231.400,144.227 231.482,144.289 231.583 C 144.352 231.684,144.334 231.796,144.251 231.833 C 144.097 231.901,142.912 234.190,142.904 234.434 C 142.902 234.508,142.698 234.800,142.451 235.084 C 142.205 235.368,142.043 235.600,142.092 235.600 C 142.141 235.600,141.959 235.839,141.688 236.131 C 141.418 236.424,141.235 236.702,141.283 236.750 C 141.331 236.797,141.065 237.132,140.693 237.493 C 140.321 237.855,140.065 238.198,140.124 238.257 C 140.182 238.315,140.041 238.424,139.810 238.497 C 139.579 238.570,139.243 238.854,139.064 239.127 C 138.885 239.400,138.393 239.800,137.969 240.016 C 137.546 240.231,137.200 240.502,137.200 240.616 C 137.200 240.730,137.109 240.768,136.999 240.699 C 136.888 240.631,136.745 240.710,136.682 240.875 C 136.615 241.051,136.436 241.125,136.251 241.053 C 136.041 240.973,135.983 241.011,136.079 241.166 C 136.159 241.295,136.128 241.411,136.012 241.425 C 135.498 241.486,135.425 241.508,135.283 241.650 C 135.201 241.732,134.982 241.800,134.796 241.800 C 134.611 241.800,134.049 242.018,133.548 242.285 C 133.046 242.551,132.585 242.719,132.523 242.656 C 132.461 242.594,132.272 242.657,132.105 242.796 C 131.937 242.935,131.800 242.997,131.800 242.933 C 131.800 242.870,131.462 242.936,131.050 243.080 C 130.638 243.224,130.125 243.316,129.911 243.283 C 129.698 243.251,129.428 243.283,129.311 243.356 C 128.691 243.744,126.621 243.770,96.200 243.773 C 65.599 243.777,63.724 243.753,63.068 243.343 C 62.940 243.264,62.468 243.184,62.018 243.166 C 61.568 243.149,61.200 243.054,61.200 242.955 C 61.200 242.856,61.042 242.799,60.850 242.828 C 60.657 242.858,60.296 242.769,60.046 242.632 C 59.796 242.494,59.504 242.436,59.396 242.503 C 59.288 242.569,59.200 242.531,59.200 242.418 C 59.200 242.305,59.050 242.270,58.867 242.340 C 58.624 242.434,58.579 242.396,58.700 242.200 C 58.821 242.004,58.776 241.966,58.533 242.060 C 58.350 242.130,58.200 242.091,58.200 241.972 C 58.200 241.854,58.065 241.809,57.900 241.872 C 57.735 241.936,57.600 241.917,57.600 241.831 C 57.600 241.745,57.285 241.551,56.900 241.400 C 56.515 241.249,56.200 241.047,56.200 240.951 C 56.200 240.855,56.110 240.832,56.000 240.900 C 55.890 240.968,55.800 240.928,55.800 240.812 C 55.800 240.695,55.704 240.600,55.586 240.600 C 55.468 240.600,54.951 240.309,54.436 239.952 C 53.921 239.596,53.434 239.304,53.354 239.302 C 53.273 239.301,53.065 239.096,52.890 238.847 C 52.716 238.597,52.489 238.445,52.386 238.508 C 52.284 238.572,52.200 238.486,52.200 238.319 C 52.200 238.151,51.997 237.907,51.750 237.777 C 51.502 237.646,51.120 237.341,50.900 237.100 C 49.988 236.098,49.638 235.629,49.733 235.533 C 49.789 235.478,49.647 235.332,49.417 235.209 C 49.188 235.086,49.000 234.854,49.000 234.693 C 49.000 234.532,48.905 234.400,48.788 234.400 C 48.672 234.400,48.632 234.310,48.700 234.200 C 48.768 234.090,48.730 234.000,48.616 234.000 C 48.501 234.000,48.351 233.775,48.282 233.500 C 48.213 233.225,48.071 233.000,47.967 233.000 C 47.862 233.000,47.827 232.918,47.889 232.817 C 47.952 232.716,47.907 232.602,47.790 232.563 C 47.674 232.525,47.554 232.359,47.524 232.196 C 47.495 232.033,47.306 231.540,47.105 231.100 C 46.903 230.660,46.756 230.188,46.778 230.050 C 46.800 229.913,46.732 229.800,46.627 229.800 C 46.523 229.800,46.485 229.620,46.542 229.400 C 46.607 229.153,46.548 229.000,46.390 229.000 C 46.249 229.000,46.190 228.943,46.260 228.874 C 46.329 228.804,46.303 228.593,46.202 228.405 C 46.001 228.029,45.771 227.073,45.768 226.600 C 45.767 226.435,45.713 226.165,45.648 226.000 C 45.582 225.835,45.508 225.385,45.483 225.000 C 45.458 224.615,45.383 224.075,45.318 223.800 C 45.183 223.233,45.176 59.227,45.311 57.729 C 45.359 57.194,45.530 56.256,45.689 55.644 C 45.849 55.031,45.928 54.446,45.865 54.343 C 45.801 54.240,45.850 54.093,45.973 54.016 C 46.097 53.940,46.218 53.613,46.243 53.289 C 46.267 52.965,46.399 52.585,46.535 52.444 C 46.672 52.304,46.731 52.053,46.667 51.887 C 46.604 51.721,46.712 51.408,46.908 51.191 C 47.104 50.975,47.209 50.742,47.142 50.675 C 47.074 50.608,47.151 50.421,47.311 50.260 C 47.472 50.099,47.553 49.885,47.490 49.784 C 47.428 49.683,47.452 49.600,47.544 49.600 C 47.693 49.600,48.218 48.557,48.277 48.143 C 48.290 48.056,48.424 47.909,48.576 47.815 C 48.727 47.721,48.789 47.545,48.714 47.422 C 48.638 47.300,48.672 47.200,48.788 47.200 C 48.905 47.200,49.000 47.065,49.000 46.900 C 49.000 46.735,49.105 46.600,49.233 46.600 C 49.362 46.600,49.410 46.544,49.342 46.475 C 49.273 46.407,49.398 46.204,49.619 46.025 C 49.840 45.846,50.042 45.552,50.069 45.371 C 50.096 45.190,50.338 44.799,50.609 44.502 C 52.025 42.947,52.387 42.600,52.595 42.600 C 52.721 42.600,52.772 42.516,52.709 42.414 C 52.646 42.312,52.776 42.171,52.997 42.101 C 53.219 42.030,53.495 41.796,53.610 41.581 C 53.726 41.365,53.894 41.234,53.984 41.290 C 54.075 41.346,54.354 41.214,54.605 40.996 C 54.856 40.778,55.185 40.600,55.337 40.600 C 55.489 40.600,55.666 40.460,55.732 40.289 C 55.798 40.117,55.965 40.020,56.103 40.073 C 56.241 40.126,56.544 40.037,56.777 39.874 C 57.010 39.711,57.200 39.631,57.200 39.696 C 57.200 39.761,57.403 39.701,57.650 39.563 C 58.365 39.164,59.442 38.792,60.193 38.685 C 60.574 38.630,60.934 38.521,60.993 38.443 C 61.052 38.364,61.280 38.306,61.500 38.313 C 61.720 38.320,61.983 38.283,62.085 38.230 C 62.270 38.133,62.446 38.109,64.300 37.919 C 65.652 37.780,122.784 37.791,124.300 37.930 C 125.870 38.074,126.041 38.101,126.420 38.274 C 126.596 38.354,126.821 38.400,126.920 38.375 C 127.341 38.269,131.406 39.578,131.763 39.934 C 131.911 40.082,132.115 40.153,132.216 40.090 C 132.317 40.028,132.400 40.072,132.400 40.188 C 132.400 40.305,132.548 40.400,132.728 40.400 C 132.908 40.400,133.158 40.540,133.283 40.711 C 133.409 40.882,133.673 41.046,133.871 41.075 C 134.070 41.104,134.313 41.257,134.413 41.414 C 134.512 41.571,134.595 41.616,134.597 41.514 C 134.599 41.412,134.856 41.614,135.168 41.964 C 135.480 42.314,135.855 42.600,136.001 42.600 C 136.147 42.600,136.207 42.660,136.134 42.732 C 136.062 42.805,136.375 43.230,136.830 43.676 C 137.285 44.122,137.922 44.917,138.246 45.443 C 138.569 45.970,138.900 46.400,138.980 46.400 C 139.060 46.400,139.249 46.715,139.400 47.100 C 139.551 47.485,139.748 47.800,139.837 47.800 C 139.927 47.800,140.000 47.980,140.000 48.200 C 140.000 48.420,140.095 48.600,140.212 48.600 C 140.328 48.600,140.372 48.683,140.310 48.784 C 140.247 48.885,140.310 49.090,140.448 49.239 C 140.587 49.388,140.729 49.642,140.765 49.805 C 140.801 49.967,140.908 50.128,141.004 50.163 C 141.099 50.198,141.128 50.355,141.067 50.513 C 141.007 50.671,141.042 50.800,141.145 50.800 C 141.249 50.800,141.343 50.913,141.356 51.050 C 141.409 51.646,142.099 53.713,142.290 53.847 C 142.406 53.928,142.421 53.995,142.326 53.997 C 142.230 53.999,142.251 54.121,142.374 54.268 C 142.496 54.416,142.543 54.590,142.478 54.655 C 142.413 54.720,142.435 54.892,142.527 55.037 C 142.619 55.182,142.709 55.570,142.728 55.900 C 142.747 56.230,142.836 56.770,142.926 57.100 C 143.016 57.430,143.092 63.347,143.095 70.250 C 143.098 77.152,143.166 82.800,143.248 82.800 C 143.329 82.800,143.353 83.295,143.302 83.900 C 143.250 84.505,143.279 85.000,143.365 85.000 C 143.452 85.000,143.504 85.270,143.481 85.600 C 143.459 85.930,143.518 86.200,143.614 86.200 C 143.709 86.200,143.735 86.336,143.671 86.503 C 143.607 86.669,143.678 86.953,143.828 87.133 C 143.977 87.314,144.078 87.493,144.050 87.531 C 144.023 87.569,144.007 87.623,144.015 87.650 C 144.023 87.678,144.071 87.925,144.121 88.200 C 144.171 88.475,144.300 88.730,144.407 88.767 C 144.515 88.804,144.551 88.917,144.489 89.018 C 144.356 89.233,145.385 91.200,145.632 91.200 C 145.724 91.200,145.800 91.338,145.800 91.506 C 145.800 91.675,145.935 91.864,146.100 91.928 C 146.265 91.991,146.399 92.146,146.398 92.271 C 146.396 92.595,149.215 95.214,149.426 95.084 C 149.522 95.025,149.600 95.072,149.600 95.188 C 149.600 95.305,149.735 95.400,149.900 95.400 C 150.065 95.400,150.200 95.490,150.200 95.600 C 150.200 95.710,150.380 95.800,150.600 95.800 C 150.820 95.800,151.000 95.895,151.000 96.012 C 151.000 96.128,151.079 96.175,151.176 96.115 C 151.274 96.055,151.588 96.190,151.875 96.416 C 152.161 96.641,152.487 96.770,152.598 96.701 C 152.709 96.633,152.800 96.681,152.800 96.810 C 152.800 96.938,152.935 96.991,153.100 96.928 C 153.265 96.864,153.400 96.915,153.400 97.040 C 153.400 97.164,153.456 97.210,153.525 97.141 C 153.594 97.072,153.887 97.137,154.175 97.284 C 154.642 97.523,155.858 97.809,156.850 97.913 C 157.043 97.933,157.222 97.971,157.250 97.996 C 157.784 98.489,167.625 98.577,169.400 98.104 C 169.675 98.031,170.192 97.975,170.550 97.979 C 170.907 97.984,171.200 97.894,171.200 97.780 C 171.200 97.666,171.372 97.628,171.583 97.695 C 171.794 97.762,172.022 97.727,172.090 97.617 C 172.157 97.507,172.345 97.468,172.506 97.530 C 172.668 97.592,172.800 97.543,172.800 97.421 C 172.800 97.300,172.868 97.211,172.950 97.224 C 173.033 97.237,173.168 97.225,173.250 97.199 C 173.333 97.172,173.490 97.127,173.600 97.100 C 173.710 97.073,173.845 97.028,173.900 97.000 C 173.955 96.973,174.090 96.928,174.200 96.900 C 174.310 96.873,174.423 96.832,174.450 96.810 C 174.478 96.788,174.656 96.739,174.847 96.703 C 175.408 96.595,176.400 96.115,176.400 95.951 C 176.400 95.868,176.583 95.800,176.806 95.800 C 177.030 95.800,177.263 95.668,177.325 95.508 C 177.386 95.347,177.624 95.156,177.853 95.083 C 178.304 94.940,178.509 94.789,179.391 93.950 C 179.709 93.648,180.066 93.400,180.185 93.400 C 180.303 93.400,180.400 93.268,180.400 93.107 C 180.400 92.946,180.580 92.718,180.800 92.600 C 181.020 92.482,181.200 92.287,181.200 92.165 C 181.200 92.044,181.358 91.815,181.550 91.657 C 181.752 91.491,181.774 91.435,181.600 91.524 C 181.274 91.690,181.470 91.385,182.243 90.522 C 182.432 90.312,182.539 90.063,182.481 89.970 C 182.424 89.876,182.472 89.800,182.588 89.800 C 182.705 89.800,182.800 89.626,182.800 89.413 C 182.800 89.200,182.905 88.773,183.033 88.463 C 183.162 88.153,183.285 87.833,183.308 87.750 C 183.331 87.668,183.373 87.555,183.400 87.500 C 183.428 87.445,183.472 87.310,183.500 87.200 C 183.528 87.090,183.569 86.978,183.592 86.950 C 183.676 86.849,183.827 85.885,183.842 85.356 C 183.851 85.057,183.931 84.858,184.021 84.913 C 184.185 85.015,184.110 52.881,183.942 51.200 C 183.892 50.705,183.788 49.850,183.710 49.300 C 183.444 47.429,183.390 46.901,183.400 46.265 C 183.406 45.916,183.326 45.578,183.223 45.514 C 183.120 45.450,183.060 45.174,183.090 44.899 C 183.120 44.625,183.082 44.400,183.005 44.400 C 182.928 44.400,182.853 44.075,182.838 43.677 C 182.823 43.279,182.710 42.833,182.588 42.686 C 182.466 42.538,182.426 42.320,182.500 42.200 C 182.574 42.080,182.529 41.855,182.400 41.700 C 182.271 41.545,182.220 41.330,182.286 41.223 C 182.352 41.115,182.319 40.974,182.212 40.907 C 182.105 40.841,182.068 40.654,182.131 40.492 C 182.193 40.330,182.099 39.976,181.922 39.706 C 181.745 39.435,181.547 38.881,181.482 38.474 C 181.418 38.066,181.268 37.501,181.150 37.217 C 181.032 36.932,180.950 36.633,180.968 36.550 C 180.985 36.468,180.905 36.400,180.788 36.400 C 180.672 36.400,180.632 36.309,180.701 36.198 C 180.769 36.088,180.685 35.856,180.513 35.684 C 180.341 35.512,180.200 35.198,180.200 34.986 C 180.200 34.774,179.942 34.038,179.627 33.351 C 179.313 32.663,178.942 31.808,178.803 31.450 C 178.665 31.092,178.482 30.800,178.397 30.800 C 178.313 30.800,178.187 30.575,178.118 30.300 C 178.049 30.025,177.899 29.800,177.784 29.800 C 177.670 29.800,177.632 29.710,177.700 29.600 C 177.768 29.490,177.728 29.400,177.612 29.400 C 177.495 29.400,177.400 29.217,177.400 28.994 C 177.400 28.770,177.266 28.536,177.101 28.473 C 176.937 28.410,176.852 28.277,176.914 28.178 C 176.975 28.078,176.885 27.943,176.713 27.877 C 176.541 27.811,176.400 27.584,176.400 27.372 C 176.400 27.161,176.265 26.936,176.100 26.872 C 175.935 26.809,175.800 26.632,175.800 26.479 C 175.800 26.325,175.695 26.200,175.567 26.200 C 175.438 26.200,175.392 26.141,175.463 26.070 C 175.535 25.998,175.376 25.738,175.109 25.491 C 174.843 25.244,174.668 24.999,174.721 24.946 C 174.774 24.893,174.450 24.478,174.001 24.025 C 173.552 23.571,173.256 23.200,173.342 23.199 C 173.429 23.199,173.168 22.893,172.762 22.520 C 172.356 22.148,172.079 21.788,172.145 21.721 C 172.212 21.655,172.111 21.600,171.922 21.600 C 171.732 21.600,171.614 21.533,171.661 21.450 C 171.707 21.368,171.249 20.805,170.641 20.200 C 170.034 19.595,169.613 19.235,169.707 19.400 C 169.800 19.565,169.386 19.224,168.788 18.641 C 166.982 16.883,166.655 16.600,166.437 16.600 C 166.321 16.600,166.171 16.424,166.103 16.209 C 166.035 15.994,165.673 15.708,165.300 15.573 C 164.927 15.438,164.667 15.254,164.722 15.164 C 164.778 15.074,164.638 15.000,164.412 15.000 C 164.185 15.000,164.000 14.895,164.000 14.767 C 164.000 14.638,163.943 14.591,163.872 14.661 C 163.802 14.731,163.480 14.566,163.157 14.294 C 162.834 14.022,162.441 13.800,162.285 13.800 C 162.128 13.800,162.000 13.720,162.000 13.622 C 162.000 13.524,161.775 13.387,161.500 13.318 C 161.225 13.249,161.000 13.099,161.000 12.984 C 161.000 12.870,160.919 12.826,160.821 12.887 C 160.722 12.948,160.590 12.863,160.527 12.699 C 160.464 12.534,160.230 12.400,160.006 12.400 C 159.783 12.400,159.600 12.310,159.600 12.200 C 159.600 12.090,159.466 12.000,159.302 12.000 C 159.139 12.000,158.821 11.842,158.596 11.650 C 158.371 11.457,158.122 11.288,158.044 11.273 C 157.512 11.173,157.000 10.924,157.000 10.765 C 157.000 10.661,156.910 10.632,156.800 10.700 C 156.690 10.768,156.600 10.723,156.600 10.600 C 156.600 10.477,156.510 10.432,156.400 10.500 C 156.290 10.568,156.200 10.523,156.200 10.400 C 156.200 10.277,156.110 10.232,156.000 10.300 C 155.890 10.368,155.800 10.323,155.800 10.200 C 155.800 10.077,155.710 10.032,155.600 10.100 C 155.490 10.168,155.400 10.113,155.400 9.978 C 155.400 9.844,155.344 9.789,155.276 9.857 C 155.208 9.925,155.021 9.849,154.860 9.689 C 154.699 9.528,154.485 9.447,154.384 9.510 C 154.283 9.572,154.200 9.538,154.200 9.433 C 154.200 9.329,153.953 9.181,153.652 9.106 C 153.351 9.030,153.050 8.881,152.984 8.774 C 152.918 8.667,152.676 8.566,152.446 8.548 C 152.216 8.531,152.061 8.463,152.102 8.396 C 152.144 8.330,151.665 8.107,151.039 7.901 C 150.412 7.696,149.758 7.409,149.584 7.264 C 149.411 7.119,149.073 7.000,148.834 7.000 C 148.595 7.000,148.400 6.906,148.400 6.791 C 148.400 6.676,148.287 6.605,148.150 6.633 C 148.013 6.661,147.720 6.584,147.500 6.462 C 147.280 6.339,147.010 6.221,146.900 6.198 C 146.790 6.176,146.354 5.980,145.931 5.765 C 145.507 5.549,145.046 5.416,144.905 5.470 C 144.764 5.524,144.570 5.495,144.474 5.404 C 144.176 5.122,142.134 4.476,141.000 4.305 C 140.725 4.264,140.253 4.135,139.950 4.020 C 139.648 3.904,139.400 3.864,139.400 3.929 C 139.400 3.995,139.266 3.938,139.103 3.802 C 138.939 3.666,138.669 3.607,138.503 3.671 C 138.336 3.735,138.200 3.695,138.200 3.581 C 138.200 3.468,138.042 3.391,137.850 3.410 C 137.657 3.430,137.455 3.428,137.400 3.406 C 137.257 3.348,135.997 3.184,135.350 3.139 C 135.047 3.117,134.800 3.038,134.800 2.962 C 134.800 2.887,134.643 2.826,134.450 2.828 C 134.258 2.829,133.335 2.763,132.400 2.679 C 130.374 2.499,58.124 2.342,57.949 2.518 M261.755 2.511 C 261.693 2.573,261.070 2.655,260.371 2.694 C 258.573 2.792,257.184 2.984,256.585 3.218 C 256.302 3.329,255.852 3.425,255.585 3.433 C 255.318 3.440,254.920 3.511,254.700 3.592 C 254.480 3.672,253.812 3.896,253.215 4.089 C 252.618 4.283,252.004 4.568,251.849 4.722 C 251.694 4.877,251.485 4.953,251.384 4.890 C 251.283 4.828,251.200 4.877,251.200 5.000 C 251.200 5.123,251.110 5.168,251.000 5.100 C 250.890 5.032,250.800 5.077,250.800 5.200 C 250.800 5.323,250.710 5.368,250.600 5.300 C 250.490 5.232,250.400 5.277,250.400 5.400 C 250.400 5.523,250.319 5.574,250.221 5.513 C 250.122 5.452,249.988 5.542,249.922 5.714 C 249.857 5.885,249.717 5.972,249.611 5.907 C 249.506 5.842,249.322 5.971,249.203 6.194 C 249.084 6.417,248.896 6.600,248.785 6.600 C 248.675 6.600,248.221 6.960,247.776 7.400 C 247.332 7.840,247.033 8.200,247.111 8.200 C 247.190 8.200,247.016 8.387,246.725 8.616 C 246.434 8.845,246.242 9.105,246.297 9.195 C 246.352 9.285,246.274 9.406,246.122 9.464 C 245.817 9.581,244.600 11.717,244.600 12.136 C 244.600 12.281,244.500 12.400,244.379 12.400 C 244.257 12.400,244.209 12.535,244.272 12.700 C 244.336 12.865,244.315 13.000,244.226 13.000 C 243.995 13.000,243.573 13.994,243.709 14.215 C 243.772 14.317,243.737 14.400,243.631 14.400 C 243.431 14.400,242.937 15.604,243.080 15.747 C 243.125 15.792,243.044 16.054,242.901 16.331 C 242.758 16.607,242.663 16.983,242.692 17.167 C 242.720 17.350,242.655 17.557,242.548 17.627 C 242.440 17.696,242.340 18.168,242.326 18.675 C 242.312 19.183,242.236 19.598,242.158 19.599 C 242.080 19.599,242.056 19.976,242.104 20.435 C 242.151 20.894,242.103 21.376,241.997 21.504 C 241.872 21.655,241.830 65.117,241.880 143.819 C 241.960 270.695,241.952 266.914,242.146 267.400 C 242.212 267.565,242.275 267.835,242.286 268.000 C 242.297 268.165,242.378 268.413,242.465 268.550 C 242.552 268.688,242.572 268.884,242.509 268.986 C 242.445 269.089,242.486 269.230,242.600 269.300 C 242.714 269.370,242.752 269.515,242.686 269.623 C 242.620 269.730,242.674 269.949,242.807 270.109 C 242.940 270.269,242.982 270.400,242.900 270.400 C 242.818 270.400,242.851 270.521,242.974 270.668 C 243.096 270.816,243.137 270.996,243.065 271.068 C 242.993 271.141,243.038 271.200,243.167 271.200 C 243.295 271.200,243.390 271.268,243.378 271.350 C 243.335 271.652,243.652 272.400,243.823 272.400 C 243.920 272.400,244.000 272.618,244.000 272.885 C 244.000 273.172,244.216 273.541,244.527 273.785 C 244.817 274.013,244.978 274.200,244.885 274.200 C 244.791 274.200,244.987 274.448,245.319 274.750 C 245.650 275.053,245.777 275.210,245.600 275.100 C 245.158 274.825,246.192 275.785,247.000 276.400 C 247.362 276.675,247.809 277.042,247.994 277.215 C 248.364 277.562,249.015 277.881,249.250 277.832 C 249.332 277.814,249.400 277.887,249.400 277.993 C 249.400 278.099,249.591 278.288,249.824 278.413 C 250.155 278.590,250.215 278.585,250.096 278.393 C 250.012 278.257,250.217 278.349,250.552 278.596 C 250.888 278.844,251.261 278.986,251.381 278.912 C 251.501 278.837,251.600 278.853,251.600 278.946 C 251.600 279.039,251.794 279.130,252.032 279.147 C 252.270 279.165,252.517 279.255,252.582 279.347 C 252.647 279.438,252.835 279.504,253.000 279.492 C 253.165 279.480,253.614 279.594,253.998 279.745 C 254.381 279.896,255.011 280.053,255.398 280.095 C 255.784 280.137,256.325 280.224,256.600 280.290 C 257.826 280.581,265.400 280.834,265.400 280.584 C 265.400 280.519,265.918 280.455,266.550 280.442 C 268.560 280.400,268.791 280.377,268.897 280.205 C 268.954 280.113,269.180 280.085,269.400 280.142 C 269.620 280.200,269.800 280.169,269.800 280.073 C 269.800 279.978,270.180 279.885,270.644 279.867 C 271.109 279.849,271.519 279.742,271.557 279.629 C 271.595 279.515,271.755 279.472,271.913 279.533 C 272.071 279.593,272.200 279.536,272.200 279.405 C 272.200 279.274,272.313 279.207,272.450 279.256 C 272.588 279.304,273.034 279.177,273.442 278.972 C 273.850 278.768,274.312 278.600,274.468 278.600 C 274.623 278.600,274.862 278.466,274.998 278.302 C 275.134 278.138,275.326 278.054,275.424 278.115 C 275.522 278.176,275.657 278.085,275.722 277.914 C 275.788 277.742,275.909 277.644,275.991 277.694 C 276.072 277.745,276.323 277.615,276.548 277.405 C 276.773 277.196,277.010 277.077,277.074 277.141 C 277.138 277.205,277.247 277.109,277.317 276.929 C 277.386 276.748,277.534 276.600,277.645 276.600 C 277.919 276.600,279.296 275.189,279.463 274.737 C 279.537 274.538,279.677 274.424,279.775 274.485 C 279.873 274.545,280.065 274.326,280.201 273.997 C 280.337 273.669,280.528 273.400,280.624 273.400 C 280.721 273.400,280.800 273.220,280.800 273.000 C 280.800 272.780,280.890 272.600,281.000 272.600 C 281.110 272.600,281.182 272.532,281.160 272.450 C 281.084 272.162,281.429 271.400,281.635 271.400 C 281.749 271.400,281.793 271.271,281.733 271.113 C 281.672 270.955,281.718 270.794,281.834 270.755 C 281.950 270.717,282.072 270.446,282.104 270.154 C 282.136 269.862,282.223 269.525,282.297 269.405 C 282.371 269.285,282.473 268.762,282.523 268.243 C 282.573 267.724,282.649 267.120,282.692 266.900 C 282.734 266.680,282.777 266.455,282.786 266.400 C 282.795 266.345,282.801 214.888,282.800 152.050 L 282.797 37.800 332.549 37.784 C 359.912 37.775,382.570 37.731,382.900 37.687 C 383.230 37.642,383.860 37.564,384.300 37.513 C 386.048 37.309,387.400 36.998,387.400 36.800 C 387.400 36.714,387.513 36.651,387.650 36.659 C 388.031 36.681,389.200 36.183,389.200 35.998 C 389.200 35.909,389.605 35.640,390.100 35.400 C 390.595 35.160,391.000 34.851,391.000 34.712 C 391.000 34.573,391.270 34.253,391.600 34.000 C 391.930 33.747,392.200 33.465,392.200 33.372 C 392.200 33.280,392.358 33.021,392.550 32.796 C 392.743 32.571,392.904 32.322,392.909 32.244 C 392.914 32.165,393.107 31.740,393.338 31.300 C 393.568 30.860,393.744 30.451,393.729 30.391 C 393.713 30.331,393.850 30.054,394.033 29.775 C 394.216 29.495,394.430 28.824,394.508 28.283 C 394.586 27.743,394.723 27.208,394.812 27.095 C 395.299 26.479,395.455 16.805,394.978 16.801 C 394.910 16.800,394.899 16.574,394.951 16.299 C 395.004 16.023,394.959 15.686,394.851 15.549 C 394.744 15.412,394.646 14.962,394.634 14.548 C 394.622 14.135,394.536 13.640,394.443 13.448 C 394.350 13.257,394.285 12.965,394.300 12.800 C 394.315 12.635,394.234 12.320,394.121 12.100 C 394.008 11.880,393.937 11.623,393.965 11.529 C 393.992 11.435,393.922 11.247,393.809 11.111 C 393.696 10.975,393.663 10.804,393.735 10.732 C 393.807 10.659,393.762 10.600,393.633 10.600 C 393.505 10.600,393.400 10.381,393.400 10.114 C 393.400 9.847,393.269 9.498,393.110 9.338 C 392.950 9.178,392.875 8.992,392.943 8.924 C 393.011 8.856,392.947 8.800,392.800 8.800 C 392.653 8.800,392.592 8.741,392.664 8.670 C 392.735 8.598,392.638 8.411,392.447 8.255 C 392.246 8.090,392.226 8.036,392.400 8.128 C 392.565 8.214,392.386 7.888,392.001 7.402 C 390.942 6.064,389.235 4.400,388.921 4.400 C 388.768 4.400,388.589 4.261,388.524 4.091 C 388.459 3.920,388.292 3.795,388.153 3.812 C 387.741 3.863,387.000 3.569,387.000 3.355 C 387.000 3.246,386.860 3.211,386.690 3.276 C 386.487 3.354,386.429 3.315,386.522 3.164 C 386.620 3.006,386.552 2.976,386.307 3.069 C 386.110 3.145,385.834 3.111,385.692 2.994 C 385.551 2.876,385.000 2.726,384.468 2.659 C 383.242 2.504,261.908 2.359,261.755 2.511 M341.557 106.107 C 341.479 106.187,340.759 106.285,339.957 106.326 C 339.156 106.366,338.365 106.407,338.200 106.416 C 338.035 106.426,337.765 106.485,337.600 106.548 C 337.435 106.612,337.033 106.701,336.707 106.748 C 336.381 106.794,335.951 106.919,335.753 107.025 C 335.554 107.132,335.304 107.164,335.196 107.097 C 335.088 107.031,335.000 107.063,335.000 107.169 C 335.000 107.276,334.820 107.315,334.600 107.258 C 334.380 107.200,334.200 107.251,334.200 107.370 C 334.200 107.490,334.065 107.536,333.900 107.472 C 333.735 107.409,333.600 107.466,333.600 107.600 C 333.600 107.734,333.465 107.791,333.300 107.728 C 333.135 107.664,333.000 107.700,333.000 107.806 C 333.000 107.913,332.775 108.000,332.500 108.000 C 332.225 108.000,332.000 108.095,332.000 108.212 C 332.000 108.328,331.913 108.370,331.807 108.305 C 331.597 108.174,329.709 109.062,329.150 109.554 C 328.957 109.723,328.800 109.798,328.800 109.721 C 328.800 109.643,328.499 109.809,328.131 110.090 C 327.763 110.370,327.361 110.600,327.238 110.600 C 327.115 110.600,326.918 110.780,326.800 111.000 C 326.682 111.220,326.454 111.400,326.293 111.400 C 326.132 111.400,326.000 111.490,326.000 111.600 C 326.000 111.710,325.888 111.799,325.750 111.798 C 325.613 111.797,325.275 112.048,325.000 112.356 C 324.725 112.664,324.580 112.777,324.679 112.608 C 324.777 112.439,324.336 112.840,323.699 113.500 C 323.062 114.160,322.464 114.700,322.371 114.700 C 322.277 114.700,322.223 114.759,322.250 114.832 C 322.278 114.904,322.051 115.160,321.746 115.400 C 321.441 115.639,321.055 116.100,320.887 116.424 C 320.720 116.748,320.497 116.960,320.391 116.895 C 320.224 116.791,320.185 116.876,320.205 117.305 C 320.207 117.363,319.969 117.633,319.676 117.905 C 319.382 118.177,319.206 118.400,319.284 118.400 C 319.363 118.400,319.095 118.805,318.689 119.300 C 318.284 119.795,318.014 120.200,318.090 120.200 C 318.165 120.200,318.044 120.458,317.820 120.773 C 317.595 121.087,317.469 121.402,317.539 121.473 C 317.609 121.543,317.556 121.600,317.422 121.600 C 317.287 121.600,317.232 121.690,317.300 121.800 C 317.368 121.910,317.323 122.000,317.200 122.000 C 317.077 122.000,317.026 122.081,317.087 122.179 C 317.148 122.278,317.054 122.413,316.878 122.481 C 316.696 122.551,316.608 122.732,316.673 122.902 C 316.736 123.066,316.691 123.200,316.572 123.200 C 316.454 123.200,316.411 123.340,316.476 123.510 C 316.554 123.713,316.515 123.771,316.364 123.678 C 316.209 123.582,316.174 123.645,316.260 123.867 C 316.333 124.057,316.290 124.200,316.160 124.200 C 316.036 124.200,315.990 124.256,316.059 124.325 C 316.128 124.394,316.060 124.747,315.909 125.109 C 315.758 125.471,315.686 125.820,315.750 125.884 C 315.814 125.948,315.752 126.000,315.612 126.000 C 315.468 126.000,315.407 126.130,315.472 126.300 C 315.536 126.465,315.509 126.600,315.414 126.600 C 315.318 126.600,315.240 126.927,315.240 127.326 C 315.240 127.725,315.155 128.108,315.050 128.176 C 314.946 128.244,314.854 128.435,314.845 128.600 C 314.837 128.765,314.772 129.305,314.701 129.800 C 314.630 130.295,314.528 131.015,314.476 131.400 C 314.289 132.762,314.255 137.515,314.423 138.600 C 314.517 139.205,314.632 140.035,314.680 140.444 C 314.813 141.597,315.027 142.477,315.240 142.741 C 315.347 142.874,315.380 143.070,315.314 143.177 C 315.248 143.285,315.285 143.429,315.397 143.498 C 315.509 143.567,315.600 143.838,315.600 144.100 C 315.600 144.362,315.691 144.633,315.803 144.702 C 315.915 144.771,315.959 144.905,315.900 145.000 C 315.841 145.095,315.885 145.229,315.997 145.298 C 316.109 145.367,316.200 145.643,316.200 145.912 C 316.200 146.180,316.295 146.400,316.412 146.400 C 316.528 146.400,316.572 146.483,316.510 146.584 C 316.447 146.685,316.517 146.888,316.664 147.036 C 316.812 147.183,316.890 147.438,316.839 147.602 C 316.787 147.766,316.814 147.836,316.898 147.758 C 317.046 147.620,317.781 148.825,317.880 149.366 C 317.906 149.512,318.057 149.713,318.214 149.813 C 318.371 149.912,318.428 149.995,318.340 149.997 C 318.175 150.000,319.344 151.812,319.644 152.016 C 319.737 152.080,319.983 152.440,320.189 152.816 C 320.396 153.192,320.669 153.475,320.797 153.445 C 320.925 153.415,320.972 153.483,320.902 153.596 C 320.832 153.710,320.915 153.857,321.086 153.922 C 321.258 153.988,321.348 154.122,321.287 154.221 C 321.226 154.319,321.284 154.400,321.415 154.400 C 321.691 154.400,322.600 155.328,322.600 155.610 C 322.600 155.715,322.687 155.800,322.793 155.800 C 322.899 155.800,323.406 156.228,323.919 156.750 C 324.433 157.273,324.788 157.565,324.709 157.400 C 324.631 157.235,324.841 157.415,325.178 157.800 C 325.514 158.185,325.792 158.419,325.795 158.319 C 325.798 158.220,325.980 158.346,326.200 158.600 C 326.420 158.854,326.600 159.000,326.600 158.926 C 326.600 158.852,327.058 159.153,327.618 159.595 C 328.178 160.038,328.808 160.400,329.018 160.400 C 329.228 160.400,329.400 160.505,329.400 160.633 C 329.400 160.762,329.457 160.810,329.527 160.740 C 329.597 160.670,329.877 160.789,330.150 161.004 C 330.423 161.219,330.726 161.345,330.824 161.285 C 330.921 161.225,331.000 161.277,331.000 161.400 C 331.000 161.523,331.090 161.568,331.200 161.500 C 331.310 161.432,331.400 161.462,331.400 161.567 C 331.400 161.672,331.540 161.811,331.710 161.876 C 331.886 161.944,331.968 161.911,331.900 161.800 C 331.832 161.689,331.914 161.656,332.090 161.724 C 332.260 161.789,332.400 161.919,332.400 162.012 C 332.400 162.106,332.738 162.249,333.150 162.332 C 334.101 162.522,334.014 162.497,334.600 162.742 C 335.151 162.973,336.999 163.379,338.157 163.525 C 340.358 163.801,341.057 163.852,342.700 163.852 C 344.306 163.853,345.625 163.758,347.500 163.506 C 347.830 163.461,348.348 163.400,348.650 163.369 C 348.953 163.338,349.200 163.245,349.200 163.163 C 349.200 163.080,349.336 163.065,349.503 163.129 C 349.669 163.193,349.925 163.145,350.071 163.024 C 350.217 162.903,350.387 162.854,350.449 162.916 C 350.511 162.977,350.942 162.844,351.408 162.619 C 351.873 162.394,352.326 162.254,352.413 162.308 C 352.501 162.362,352.629 162.315,352.698 162.203 C 352.767 162.091,352.998 162.000,353.212 162.000 C 353.425 162.000,353.600 161.929,353.600 161.843 C 353.600 161.756,353.801 161.670,354.047 161.651 C 354.293 161.633,354.526 161.523,354.564 161.408 C 354.603 161.292,354.706 161.242,354.794 161.297 C 354.883 161.351,355.061 161.267,355.192 161.110 C 355.322 160.952,355.572 160.879,355.747 160.946 C 355.958 161.027,356.017 160.989,355.921 160.834 C 355.830 160.687,355.917 160.600,356.158 160.600 C 356.367 160.600,356.744 160.422,356.995 160.204 C 357.246 159.986,357.530 159.857,357.626 159.916 C 357.722 159.975,357.800 159.937,357.800 159.831 C 357.800 159.726,358.048 159.552,358.350 159.446 C 358.653 159.339,359.163 158.993,359.485 158.676 C 359.806 158.359,359.995 158.235,359.904 158.400 C 359.735 158.707,359.785 158.668,360.950 157.609 C 361.197 157.384,361.400 157.262,361.400 157.339 C 361.400 157.415,361.638 157.190,361.929 156.839 C 362.220 156.487,362.585 156.200,362.741 156.200 C 362.896 156.200,362.968 156.110,362.900 156.000 C 362.832 155.890,362.900 155.800,363.051 155.800 C 363.300 155.800,364.600 154.506,364.600 154.260 C 364.600 154.203,364.825 153.981,365.100 153.764 C 365.375 153.548,365.600 153.246,365.600 153.093 C 365.600 152.939,365.783 152.716,366.006 152.597 C 366.229 152.478,366.361 152.299,366.300 152.200 C 366.239 152.101,366.362 151.927,366.573 151.814 C 366.785 151.701,367.053 151.337,367.169 151.004 C 367.284 150.672,367.468 150.400,367.576 150.400 C 367.776 150.400,368.114 149.629,368.038 149.344 C 368.015 149.259,368.132 149.137,368.298 149.073 C 368.464 149.009,368.600 148.860,368.600 148.741 C 368.600 148.621,368.882 147.934,369.227 147.212 C 369.571 146.490,369.922 145.720,370.006 145.500 C 370.090 145.280,370.303 144.772,370.479 144.371 C 370.655 143.970,370.827 143.381,370.862 143.062 C 370.897 142.743,370.993 142.373,371.075 142.241 C 371.157 142.108,371.173 141.918,371.111 141.817 C 371.048 141.716,371.084 141.604,371.190 141.567 C 371.295 141.530,371.417 141.087,371.460 140.581 C 371.503 140.076,371.603 139.556,371.684 139.426 C 371.764 139.297,371.773 138.931,371.703 138.614 C 371.634 138.297,371.654 137.990,371.748 137.932 C 372.084 137.724,371.811 130.179,371.441 129.465 C 371.337 129.264,371.277 128.942,371.308 128.750 C 371.339 128.558,371.277 128.400,371.170 128.400 C 371.064 128.400,371.032 128.310,371.100 128.200 C 371.168 128.090,371.153 127.888,371.067 127.750 C 370.981 127.613,370.880 127.277,370.842 127.005 C 370.805 126.733,370.679 126.395,370.563 126.255 C 370.446 126.115,370.410 126.000,370.483 126.000 C 370.555 126.000,370.502 125.797,370.365 125.550 C 370.228 125.303,370.139 124.988,370.167 124.850 C 370.195 124.713,370.118 124.600,369.997 124.600 C 369.876 124.600,369.832 124.510,369.900 124.400 C 369.968 124.290,369.928 124.200,369.812 124.200 C 369.695 124.200,369.619 124.133,369.642 124.050 C 369.666 123.968,369.579 123.709,369.450 123.476 C 369.320 123.243,369.271 122.996,369.340 122.926 C 369.410 122.857,369.362 122.800,369.233 122.800 C 369.105 122.800,369.000 122.634,369.000 122.431 C 369.000 122.228,368.822 121.901,368.605 121.704 C 368.387 121.508,368.258 121.269,368.317 121.173 C 368.375 121.078,368.323 121.000,368.200 121.000 C 368.077 121.000,368.032 120.910,368.100 120.800 C 368.168 120.690,368.113 120.600,367.978 120.600 C 367.844 120.600,367.786 120.547,367.850 120.483 C 367.914 120.419,367.791 120.191,367.576 119.976 C 367.361 119.761,367.233 119.508,367.292 119.414 C 367.350 119.319,367.266 119.191,367.105 119.130 C 366.944 119.068,366.679 118.697,366.515 118.306 C 366.352 117.915,366.079 117.541,365.909 117.476 C 365.739 117.411,365.600 117.258,365.600 117.136 C 365.600 117.014,365.128 116.468,364.550 115.921 C 363.973 115.375,363.680 115.048,363.900 115.193 C 364.120 115.339,363.847 115.018,363.293 114.479 C 362.062 113.282,361.246 112.600,361.047 112.600 C 360.964 112.600,360.784 112.420,360.646 112.200 C 360.509 111.980,360.262 111.800,360.098 111.800 C 359.934 111.800,359.800 111.705,359.800 111.588 C 359.800 111.472,359.710 111.432,359.600 111.500 C 359.490 111.568,359.400 111.531,359.400 111.418 C 359.400 111.305,358.905 110.970,358.300 110.674 C 357.695 110.377,357.200 110.062,357.200 109.973 C 357.200 109.745,356.078 109.189,355.925 109.341 C 355.856 109.410,355.800 109.356,355.800 109.222 C 355.800 109.087,355.710 109.032,355.600 109.100 C 355.490 109.168,355.400 109.150,355.400 109.061 C 355.400 108.971,355.153 108.801,354.850 108.684 C 353.720 108.244,352.887 107.956,352.450 107.856 C 352.203 107.800,352.000 107.674,352.000 107.577 C 352.000 107.480,351.933 107.415,351.850 107.433 C 351.628 107.481,350.563 107.199,350.069 106.961 C 349.832 106.846,349.536 106.816,349.410 106.894 C 349.285 106.971,349.073 106.943,348.939 106.832 C 348.692 106.628,347.414 106.423,345.400 106.267 C 344.795 106.220,343.715 106.132,343.000 106.072 C 342.285 106.011,341.636 106.027,341.557 106.107 M99.743 120.723 C 99.684 120.783,99.155 120.860,98.568 120.896 C 96.234 121.038,93.506 121.509,93.064 121.846 C 92.934 121.945,92.556 122.060,92.223 122.102 C 91.891 122.144,91.393 122.326,91.118 122.507 C 90.843 122.687,90.534 122.783,90.432 122.720 C 90.330 122.657,90.020 122.784,89.742 123.003 C 89.464 123.221,89.094 123.400,88.918 123.400 C 88.743 123.400,88.600 123.480,88.600 123.577 C 88.600 123.738,88.160 123.934,87.405 124.109 C 87.243 124.147,87.010 124.316,86.886 124.486 C 86.762 124.655,86.602 124.735,86.530 124.664 C 86.459 124.592,86.400 124.638,86.400 124.767 C 86.400 124.895,86.265 125.000,86.100 125.000 C 85.935 125.000,85.620 125.180,85.400 125.400 C 85.180 125.620,84.933 125.803,84.850 125.806 C 84.690 125.812,83.510 126.758,82.582 127.625 C 82.273 127.914,81.874 128.205,81.697 128.273 C 81.520 128.341,81.424 128.478,81.485 128.576 C 81.546 128.674,81.444 128.877,81.259 129.027 C 80.974 129.259,80.949 129.258,81.093 129.019 C 81.207 128.828,81.188 128.784,81.031 128.881 C 80.904 128.959,80.800 129.156,80.800 129.317 C 80.800 129.478,80.575 129.695,80.300 129.800 C 80.025 129.905,79.800 130.117,79.800 130.272 C 79.800 130.427,79.575 130.701,79.300 130.882 C 79.025 131.062,78.800 131.293,78.800 131.396 C 78.800 131.498,78.575 131.807,78.300 132.082 C 78.025 132.357,77.800 132.726,77.800 132.903 C 77.800 133.079,77.713 133.170,77.606 133.104 C 77.499 133.038,77.354 133.212,77.285 133.490 C 77.215 133.769,77.087 133.953,77.000 133.900 C 76.913 133.847,76.781 134.050,76.705 134.351 C 76.629 134.653,76.395 135.061,76.184 135.258 C 75.973 135.455,75.800 135.792,75.800 136.008 C 75.800 136.224,75.705 136.400,75.588 136.400 C 75.472 136.400,75.432 136.490,75.500 136.600 C 75.568 136.710,75.523 136.800,75.400 136.800 C 75.277 136.800,75.226 136.880,75.286 136.977 C 75.346 137.075,75.267 137.261,75.110 137.392 C 74.952 137.522,74.879 137.772,74.946 137.947 C 75.027 138.158,74.989 138.217,74.834 138.121 C 74.703 138.040,74.587 138.092,74.570 138.238 C 74.537 138.518,74.476 138.807,74.398 139.050 C 74.372 139.133,74.339 139.282,74.325 139.383 C 74.311 139.484,74.233 139.634,74.150 139.717 C 74.067 139.799,74.000 139.996,74.000 140.153 C 74.000 140.311,73.876 140.723,73.724 141.070 C 73.334 141.960,72.934 143.862,72.916 144.910 C 72.907 145.400,72.853 145.800,72.796 145.800 C 72.641 145.800,72.691 152.651,72.849 153.000 C 72.923 153.165,73.014 153.706,73.050 154.202 C 73.087 154.698,73.180 155.206,73.258 155.332 C 73.335 155.457,73.392 155.771,73.384 156.030 C 73.369 156.503,73.701 158.042,73.938 158.600 C 74.008 158.765,74.079 158.945,74.096 159.000 C 74.491 160.311,74.690 160.768,74.827 160.683 C 74.920 160.626,74.942 160.719,74.876 160.890 C 74.811 161.061,74.862 161.200,74.990 161.200 C 75.119 161.200,75.170 161.287,75.103 161.394 C 74.986 161.585,75.446 162.439,75.949 162.966 C 76.089 163.112,76.157 163.307,76.101 163.399 C 76.044 163.491,76.103 163.601,76.231 163.644 C 76.360 163.687,76.486 163.863,76.511 164.035 C 76.577 164.488,77.209 165.400,77.456 165.400 C 77.572 165.400,77.612 165.455,77.545 165.521 C 77.421 165.646,77.572 165.868,78.338 166.688 C 78.579 166.946,78.735 167.199,78.684 167.249 C 78.521 167.413,82.198 171.010,83.352 171.815 C 83.600 171.988,83.742 172.191,83.668 172.265 C 83.594 172.339,83.683 172.400,83.867 172.400 C 84.050 172.400,84.200 172.490,84.200 172.600 C 84.200 172.710,84.335 172.800,84.500 172.800 C 84.665 172.800,84.800 172.892,84.800 173.005 C 84.800 173.118,85.003 173.297,85.250 173.404 C 85.816 173.649,86.367 174.003,86.869 174.443 C 87.085 174.632,87.337 174.739,87.430 174.681 C 87.524 174.624,87.600 174.672,87.600 174.788 C 87.600 174.905,87.724 175.000,87.876 175.000 C 88.027 175.000,88.266 175.139,88.408 175.309 C 88.549 175.479,88.785 175.572,88.932 175.515 C 89.079 175.459,89.200 175.500,89.200 175.606 C 89.200 175.713,89.362 175.800,89.560 175.800 C 89.758 175.800,90.028 175.908,90.160 176.040 C 90.292 176.172,90.401 176.194,90.403 176.090 C 90.405 175.985,90.474 176.007,90.557 176.138 C 90.640 176.269,90.962 176.422,91.272 176.478 C 91.581 176.534,91.950 176.676,92.092 176.793 C 92.234 176.911,92.496 176.951,92.675 176.882 C 92.854 176.813,93.000 176.838,93.000 176.937 C 93.000 177.211,95.299 177.683,97.500 177.861 C 97.830 177.888,98.190 177.966,98.300 178.036 C 98.549 178.192,104.671 178.103,104.937 177.939 C 105.044 177.873,105.583 177.767,106.136 177.704 C 106.688 177.641,107.417 177.510,107.755 177.413 C 108.093 177.316,108.422 177.288,108.485 177.352 C 108.548 177.415,108.600 177.377,108.600 177.267 C 108.600 177.077,108.860 177.007,109.650 176.985 C 109.843 176.980,110.000 176.913,110.000 176.838 C 110.000 176.762,110.237 176.686,110.526 176.670 C 110.816 176.653,111.129 176.518,111.223 176.370 C 111.317 176.221,111.395 176.171,111.397 176.257 C 111.399 176.343,111.603 176.302,111.850 176.164 C 112.334 175.895,112.434 175.863,112.912 175.825 C 113.094 175.810,113.164 175.704,113.081 175.569 C 112.999 175.437,113.025 175.392,113.142 175.464 C 113.360 175.599,115.432 174.570,116.100 173.996 C 116.320 173.807,116.751 173.593,117.058 173.520 C 117.365 173.448,117.572 173.317,117.519 173.230 C 117.465 173.144,117.732 172.960,118.111 172.823 C 118.490 172.686,118.800 172.445,118.800 172.287 C 118.800 172.129,118.913 172.000,119.052 172.000 C 119.190 172.000,119.418 171.817,119.558 171.592 C 119.698 171.368,119.887 171.230,119.977 171.286 C 120.067 171.341,120.490 170.985,120.917 170.493 C 121.344 170.002,121.813 169.600,121.959 169.600 C 122.104 169.600,122.172 169.516,122.109 169.414 C 122.046 169.312,122.177 169.171,122.400 169.100 C 122.623 169.029,122.766 168.906,122.717 168.827 C 122.668 168.747,122.980 168.383,123.410 168.016 C 123.840 167.650,124.147 167.276,124.091 167.185 C 124.035 167.094,124.171 166.922,124.394 166.803 C 124.617 166.684,124.802 166.477,124.803 166.343 C 124.805 166.209,125.030 165.888,125.303 165.630 C 125.575 165.371,125.754 165.088,125.700 165.001 C 125.646 164.913,125.742 164.788,125.914 164.722 C 126.085 164.657,126.174 164.519,126.111 164.418 C 126.048 164.316,126.128 164.101,126.289 163.940 C 126.449 163.779,126.540 163.606,126.489 163.556 C 126.439 163.505,126.578 163.301,126.799 163.101 C 127.019 162.901,127.200 162.583,127.200 162.393 C 127.200 162.204,127.339 161.934,127.509 161.792 C 127.679 161.651,127.772 161.415,127.715 161.268 C 127.659 161.121,127.700 161.000,127.806 161.000 C 127.913 161.000,128.000 160.875,128.000 160.723 C 128.000 160.570,128.130 160.194,128.290 159.887 C 128.449 159.580,128.534 159.255,128.478 159.164 C 128.422 159.074,128.481 159.000,128.610 159.000 C 128.738 159.000,128.791 158.865,128.728 158.700 C 128.664 158.535,128.709 158.400,128.828 158.400 C 128.946 158.400,128.991 158.265,128.928 158.100 C 128.864 157.935,128.893 157.800,128.990 157.800 C 129.154 157.800,129.346 157.182,129.535 156.051 C 129.707 155.017,129.770 154.670,129.889 154.100 C 130.307 152.097,130.387 145.002,129.993 145.000 C 129.933 145.000,129.878 144.577,129.870 144.059 C 129.862 143.542,129.752 143.084,129.626 143.042 C 129.500 143.000,129.448 142.884,129.511 142.783 C 129.573 142.682,129.555 142.489,129.471 142.354 C 129.387 142.218,129.300 141.970,129.277 141.804 C 129.179 141.082,128.998 140.538,128.758 140.241 C 128.566 140.005,128.564 139.961,128.748 140.072 C 128.916 140.173,128.957 140.121,128.876 139.910 C 128.811 139.740,128.662 139.600,128.545 139.600 C 128.429 139.600,128.386 139.547,128.451 139.482 C 128.516 139.417,128.353 138.956,128.088 138.458 C 127.823 137.960,127.655 137.473,127.715 137.376 C 127.775 137.279,127.735 137.200,127.628 137.200 C 127.520 137.200,127.372 136.930,127.300 136.600 C 127.228 136.270,127.107 136.000,127.032 136.000 C 126.957 136.000,126.778 135.811,126.633 135.579 C 126.416 135.230,126.416 135.181,126.635 135.294 C 126.781 135.369,126.752 135.307,126.571 135.158 C 126.390 135.008,126.106 134.574,125.940 134.193 C 125.774 133.812,125.269 133.106,124.819 132.625 C 124.369 132.143,124.000 131.621,124.000 131.463 C 124.000 131.305,123.910 131.232,123.800 131.300 C 123.690 131.368,123.600 131.305,123.600 131.159 C 123.600 131.014,123.375 130.726,123.100 130.519 C 122.825 130.313,122.600 130.033,122.600 129.896 C 122.600 129.760,122.448 129.525,122.262 129.374 C 121.970 129.138,121.947 129.141,122.099 129.400 C 122.195 129.565,121.808 129.250,121.238 128.700 C 119.811 127.323,119.400 126.976,119.400 127.145 C 119.400 127.224,119.260 127.089,119.089 126.845 C 118.917 126.600,118.645 126.400,118.482 126.400 C 118.320 126.400,118.136 126.265,118.072 126.100 C 118.009 125.935,117.881 125.800,117.787 125.800 C 117.694 125.800,117.107 125.442,116.482 125.005 C 115.858 124.567,115.269 124.257,115.173 124.316 C 115.078 124.375,115.000 124.328,115.000 124.212 C 115.000 124.095,114.856 124.000,114.681 124.000 C 114.505 124.000,114.117 123.826,113.819 123.613 C 113.520 123.401,113.011 123.162,112.688 123.083 C 112.365 123.003,112.047 122.858,111.982 122.759 C 111.917 122.661,111.670 122.565,111.432 122.547 C 111.194 122.530,111.000 122.456,111.000 122.383 C 111.000 122.241,109.605 121.837,108.800 121.746 C 108.525 121.715,108.200 121.627,108.078 121.550 C 107.956 121.474,107.551 121.367,107.178 121.314 C 106.805 121.261,106.275 121.174,106.000 121.120 C 104.567 120.842,99.919 120.547,99.743 120.723 " stroke="none" fill="#7024ac" fill-rule="evenodd"></path></g></svg>