<svg id="svg" version="1.1" xmlns="http://www.w3.org/2000/svg" xmlns:xlink="http://www.w3.org/1999/xlink" width="400" height="400" viewBox="0, 0, 400,400"><g id="svgg"><path id="path0" d="M274.000 53.121 C 256.465 54.672,249.591 66.414,246.963 99.300 C 246.628 103.501,246.474 327.561,246.805 330.475 C 247.680 338.194,252.395 342.479,260.000 342.468 C 263.666 342.462,265.699 341.838,267.520 340.160 L 268.400 339.349 268.400 245.375 L 268.400 151.400 286.910 151.400 L 305.420 151.400 305.296 150.150 C 304.592 143.055,304.455 143.000,287.394 143.000 C 280.779 143.000,275.397 142.924,275.433 142.830 C 275.470 142.737,276.355 141.957,277.400 141.096 C 289.197 131.384,296.855 117.481,299.486 101.000 C 300.998 91.524,300.953 79.426,299.378 72.300 C 296.408 58.864,287.257 51.948,274.000 53.121 M280.861 62.698 C 287.859 64.521,291.016 73.872,290.223 90.428 C 289.332 109.041,284.432 122.335,274.801 132.275 C 272.737 134.405,268.668 137.935,268.486 137.753 C 268.388 137.654,268.747 116.504,268.999 107.600 C 269.750 80.976,271.137 67.864,273.541 64.642 C 274.957 62.745,277.969 61.945,280.861 62.698 M169.800 77.123 C 119.159 80.680,90.980 118.160,94.182 177.700 C 96.233 215.828,110.972 240.838,138.600 253.069 C 158.600 261.923,188.894 262.670,209.299 254.813 C 210.175 254.476,210.960 254.200,211.045 254.200 C 211.130 254.200,211.200 255.763,211.200 257.674 L 211.200 261.148 209.950 261.394 C 196.189 264.101,182.108 274.632,175.127 287.440 C 167.513 301.408,166.213 323.310,172.341 334.400 C 177.372 343.506,186.683 347.569,199.358 346.188 C 219.802 343.961,229.548 329.938,232.636 298.300 C 232.807 296.555,232.890 281.328,232.942 242.470 L 233.013 189.040 232.265 188.423 C 226.274 183.485,216.236 185.470,212.911 192.249 C 211.220 195.698,211.322 194.098,211.205 218.895 L 211.100 240.891 209.147 241.734 C 195.541 247.610,176.374 249.777,163.493 246.896 C 139.780 241.591,122.009 219.396,117.609 189.589 C 111.349 147.184,126.588 107.204,154.234 93.504 C 170.914 85.238,195.457 88.001,206.577 99.396 C 212.859 105.834,215.471 117.453,212.508 125.784 C 211.427 128.823,220.548 130.811,225.188 128.548 C 236.138 123.205,234.077 104.941,221.139 92.662 C 211.717 83.720,201.153 79.171,185.900 77.488 C 183.232 77.193,172.319 76.946,169.800 77.123 M211.005 296.900 C 209.831 327.975,203.976 339.149,190.629 335.788 C 180.893 333.336,177.172 321.347,180.913 304.484 C 184.180 289.760,194.692 278.356,208.713 274.325 L 211.100 273.639 211.162 282.370 C 211.196 287.171,211.125 293.710,211.005 296.900 " stroke="none" fill="#b30ccb" fill-rule="evenodd"></path><path id="path1" d="M271.900 52.800 C 271.680 52.895,271.168 52.978,270.762 52.986 C 270.356 52.994,269.968 53.090,269.900 53.200 C 269.832 53.310,269.422 53.400,268.988 53.400 C 268.555 53.400,268.200 53.480,268.200 53.577 C 268.200 53.675,267.772 53.818,267.250 53.895 C 266.728 53.972,265.985 54.200,265.600 54.402 C 265.215 54.603,264.608 54.887,264.250 55.033 C 263.893 55.178,263.600 55.366,263.600 55.449 C 263.600 55.532,263.420 55.600,263.200 55.600 C 262.980 55.600,262.800 55.690,262.800 55.800 C 262.800 55.910,262.682 56.000,262.538 56.000 C 262.393 56.000,262.082 56.180,261.846 56.400 C 261.610 56.620,261.323 56.800,261.208 56.800 C 261.094 56.800,261.000 56.890,261.000 57.000 C 261.000 57.110,260.865 57.200,260.700 57.200 C 260.535 57.200,260.400 57.290,260.400 57.400 C 260.400 57.510,260.288 57.600,260.150 57.601 C 259.896 57.601,258.311 59.200,256.509 61.273 C 255.504 62.428,254.875 63.409,253.860 65.400 C 253.552 66.005,253.239 66.547,253.164 66.603 C 252.983 66.740,252.092 69.062,251.360 71.300 C 251.037 72.290,250.692 73.250,250.595 73.434 C 250.339 73.914,249.600 76.881,249.599 77.433 C 249.598 77.690,249.479 78.126,249.335 78.403 C 249.191 78.679,248.959 79.624,248.821 80.503 C 248.682 81.381,248.486 82.532,248.384 83.060 C 248.283 83.588,248.208 84.353,248.219 84.760 C 248.229 85.178,248.438 84.412,248.699 83.000 C 252.147 64.341,258.374 55.927,270.564 53.456 C 274.010 52.757,281.984 53.039,284.338 53.942 C 284.482 53.998,284.600 53.947,284.600 53.830 C 284.600 53.714,284.284 53.559,283.898 53.486 C 283.512 53.414,283.146 53.275,283.086 53.177 C 283.026 53.080,282.447 53.000,281.800 53.000 C 281.153 53.000,280.568 52.910,280.500 52.800 C 280.347 52.553,272.475 52.553,271.900 52.800 M285.912 54.486 C 291.943 56.809,295.936 61.281,298.427 68.500 C 299.293 71.009,299.459 71.049,298.680 68.560 C 298.182 66.970,296.082 62.311,295.616 61.763 C 295.493 61.618,295.215 61.275,294.999 61.000 C 294.783 60.725,294.402 60.243,294.153 59.929 C 293.329 58.889,291.429 57.040,290.810 56.674 C 290.474 56.476,290.200 56.260,290.200 56.194 C 290.200 56.128,289.885 55.951,289.500 55.800 C 289.115 55.649,288.800 55.452,288.800 55.363 C 288.800 55.273,288.620 55.200,288.400 55.200 C 288.180 55.200,288.000 55.110,288.000 55.000 C 288.000 54.890,287.775 54.800,287.500 54.800 C 287.225 54.800,287.000 54.710,287.000 54.600 C 287.000 54.490,286.775 54.400,286.500 54.400 C 286.225 54.400,286.000 54.310,286.000 54.200 C 286.000 54.090,285.707 54.004,285.350 54.010 C 284.769 54.019,284.828 54.069,285.912 54.486 M275.914 62.991 C 272.970 64.178,271.921 67.036,270.807 76.900 C 270.406 80.450,270.317 81.750,270.487 81.580 C 270.534 81.532,270.850 79.110,271.189 76.197 C 272.250 67.071,273.220 64.492,275.951 63.530 C 277.137 63.112,280.302 62.880,280.498 63.197 C 280.567 63.309,280.888 63.400,281.212 63.400 C 281.535 63.400,281.800 63.490,281.800 63.600 C 281.800 63.710,282.025 63.800,282.300 63.800 C 282.575 63.800,282.800 63.890,282.800 64.000 C 282.800 64.110,282.935 64.200,283.100 64.200 C 283.265 64.200,283.400 64.290,283.400 64.400 C 283.400 64.510,283.526 64.600,283.680 64.600 C 284.390 64.600,287.127 68.055,287.604 69.554 C 287.970 70.704,288.780 72.689,288.790 72.462 C 288.846 71.166,286.602 66.810,285.075 65.252 C 282.727 62.857,278.707 61.865,275.914 62.991 M299.823 73.542 C 299.811 73.675,299.936 74.665,300.103 75.742 C 300.270 76.819,300.483 78.600,300.576 79.700 C 300.673 80.845,300.757 81.290,300.773 80.742 C 300.817 79.179,299.929 72.443,299.823 73.542 M170.600 76.596 C 170.435 76.705,169.113 76.795,167.662 76.797 C 166.122 76.799,164.972 76.883,164.900 77.000 C 164.832 77.110,164.202 77.200,163.500 77.200 C 162.798 77.200,162.168 77.290,162.100 77.400 C 162.032 77.510,161.537 77.600,161.000 77.600 C 160.463 77.600,159.968 77.690,159.900 77.800 C 159.832 77.910,159.197 78.000,158.488 78.000 C 157.780 78.000,157.200 78.077,157.200 78.171 C 157.200 78.265,156.549 78.403,155.754 78.477 C 154.959 78.551,154.221 78.699,154.114 78.806 C 154.007 78.913,153.628 79.000,153.272 79.000 C 152.915 79.000,152.568 79.090,152.500 79.200 C 152.432 79.310,152.072 79.400,151.700 79.400 C 151.328 79.400,150.968 79.490,150.900 79.600 C 150.832 79.710,150.510 79.800,150.185 79.800 C 149.860 79.800,149.416 79.890,149.197 80.000 C 148.979 80.110,148.621 80.290,148.403 80.400 C 148.184 80.510,147.785 80.600,147.515 80.600 C 147.245 80.600,146.968 80.690,146.900 80.800 C 146.832 80.910,146.602 81.000,146.388 81.000 C 146.175 81.000,146.000 81.090,146.000 81.200 C 146.000 81.310,145.730 81.400,145.400 81.400 C 145.070 81.400,144.800 81.490,144.800 81.600 C 144.800 81.710,144.692 81.800,144.560 81.800 C 144.094 81.800,142.000 82.491,142.000 82.644 C 142.000 82.730,141.823 82.800,141.606 82.800 C 141.389 82.800,140.892 82.980,140.500 83.200 C 140.108 83.420,139.656 83.600,139.494 83.600 C 139.332 83.600,139.199 83.668,139.198 83.750 C 139.197 83.930,138.228 84.400,137.860 84.400 C 137.717 84.400,137.600 84.490,137.600 84.600 C 137.600 84.710,137.465 84.800,137.300 84.800 C 137.135 84.800,137.000 84.890,137.000 85.000 C 137.000 85.110,136.865 85.200,136.699 85.200 C 136.177 85.200,132.800 86.965,132.800 87.237 C 132.800 87.327,132.682 87.400,132.538 87.400 C 132.393 87.400,132.082 87.580,131.846 87.800 C 131.610 88.020,131.278 88.200,131.108 88.200 C 130.939 88.200,130.800 88.290,130.800 88.400 C 130.800 88.510,130.665 88.600,130.500 88.600 C 130.335 88.600,130.200 88.680,130.200 88.778 C 130.200 88.876,129.996 89.008,129.746 89.071 C 129.496 89.133,129.114 89.349,128.896 89.551 C 128.678 89.752,128.050 90.222,127.500 90.596 C 126.950 90.969,126.354 91.438,126.177 91.637 C 125.999 91.837,125.751 92.000,125.627 92.000 C 125.502 92.000,125.400 92.076,125.400 92.168 C 125.400 92.260,125.197 92.430,124.950 92.546 C 124.501 92.755,123.337 93.697,122.474 94.550 C 122.223 94.798,121.968 95.000,121.906 95.000 C 121.642 95.000,116.213 100.336,114.885 101.900 C 114.512 102.340,113.991 102.925,113.728 103.200 C 113.300 103.648,112.499 104.648,111.000 106.605 C 110.725 106.964,110.165 107.762,109.755 108.379 C 109.345 108.995,108.730 109.905,108.388 110.400 C 108.046 110.895,107.346 112.011,106.833 112.879 C 106.320 113.747,105.753 114.700,105.573 114.995 C 105.122 115.735,103.773 118.411,102.999 120.100 C 102.647 120.870,102.187 121.860,101.978 122.300 C 101.228 123.882,99.321 129.180,98.595 131.700 C 98.278 132.800,97.834 134.330,97.607 135.100 C 97.381 135.870,97.096 137.085,96.973 137.800 C 96.851 138.515,96.681 139.190,96.595 139.300 C 96.422 139.521,95.600 144.259,95.600 145.033 C 95.600 145.301,95.520 145.605,95.421 145.710 C 95.090 146.062,94.178 154.290,94.227 156.485 C 94.252 157.598,94.268 157.548,94.418 155.900 C 98.790 107.834,126.709 79.117,171.132 76.994 C 193.002 75.948,210.061 81.405,221.800 93.201 C 234.016 105.476,236.065 121.443,226.266 127.997 C 222.674 130.400,216.025 130.130,212.827 127.452 L 212.154 126.889 212.682 124.797 C 216.023 111.547,210.171 99.191,197.774 93.318 C 189.108 89.212,175.410 87.788,164.897 89.901 C 142.412 94.418,123.416 118.464,118.209 149.000 C 117.282 154.432,116.304 164.162,116.761 163.400 C 116.860 163.235,117.048 161.525,117.179 159.600 C 117.618 153.157,119.758 140.835,120.809 138.700 C 120.917 138.480,121.224 137.535,121.491 136.600 C 121.913 135.117,122.395 133.721,123.678 130.265 C 124.559 127.890,127.088 122.649,128.516 120.239 C 129.057 119.326,129.646 118.315,129.824 117.992 C 130.001 117.669,130.261 117.268,130.400 117.100 C 130.539 116.932,130.799 116.538,130.976 116.224 C 131.256 115.732,131.681 115.074,132.850 113.326 C 133.425 112.465,135.943 109.243,136.595 108.532 C 136.983 108.110,137.379 107.625,137.476 107.454 C 137.573 107.282,137.933 106.857,138.276 106.508 C 138.619 106.160,139.586 105.160,140.425 104.287 C 141.264 103.414,142.471 102.250,143.107 101.700 C 143.744 101.150,144.379 100.588,144.518 100.450 C 144.657 100.313,144.821 100.200,144.882 100.200 C 144.943 100.200,145.242 99.976,145.547 99.702 C 146.320 99.006,148.596 97.357,149.253 97.016 C 149.554 96.860,149.800 96.658,149.800 96.566 C 149.800 96.475,149.935 96.400,150.100 96.400 C 150.265 96.400,150.400 96.310,150.400 96.200 C 150.400 96.090,150.535 96.000,150.700 96.000 C 150.865 96.000,151.000 95.910,151.000 95.800 C 151.000 95.690,151.180 95.600,151.400 95.600 C 151.620 95.600,151.801 95.533,151.802 95.450 C 151.803 95.368,152.208 95.122,152.702 94.905 C 153.196 94.688,153.600 94.441,153.600 94.355 C 153.600 94.270,153.717 94.200,153.860 94.200 C 154.228 94.200,155.197 93.730,155.198 93.550 C 155.199 93.468,155.332 93.400,155.494 93.400 C 155.656 93.400,156.108 93.220,156.500 93.000 C 156.892 92.780,157.344 92.600,157.506 92.600 C 157.668 92.600,157.800 92.510,157.800 92.400 C 157.800 92.290,158.025 92.200,158.300 92.200 C 158.575 92.200,158.800 92.110,158.800 92.000 C 158.800 91.890,159.019 91.800,159.286 91.800 C 159.554 91.800,160.521 91.569,161.436 91.287 C 162.351 91.004,163.376 90.689,163.714 90.587 C 164.052 90.484,164.570 90.400,164.864 90.400 C 165.159 90.400,165.400 90.310,165.400 90.200 C 165.400 90.089,165.933 90.000,166.600 90.000 C 167.267 90.000,167.800 89.911,167.800 89.800 C 167.800 89.681,168.553 89.600,169.660 89.600 C 170.693 89.600,171.613 89.507,171.730 89.390 C 172.046 89.074,182.747 89.472,183.090 89.812 C 183.195 89.915,183.842 90.000,184.528 90.000 C 185.215 90.000,185.832 90.090,185.900 90.200 C 185.968 90.310,186.373 90.400,186.800 90.400 C 187.227 90.400,187.632 90.490,187.700 90.600 C 187.768 90.710,188.223 90.800,188.712 90.800 C 189.200 90.800,189.600 90.890,189.600 91.000 C 189.600 91.110,189.865 91.200,190.188 91.200 C 190.512 91.200,190.826 91.279,190.886 91.377 C 190.946 91.474,191.491 91.615,192.097 91.691 C 192.704 91.767,193.200 91.912,193.200 92.014 C 193.200 92.116,193.465 92.200,193.788 92.200 C 194.112 92.200,194.432 92.290,194.500 92.400 C 194.568 92.510,194.843 92.600,195.112 92.600 C 195.380 92.600,195.600 92.690,195.600 92.800 C 195.600 92.910,195.780 93.000,196.000 93.000 C 196.220 93.000,196.400 93.090,196.400 93.200 C 196.400 93.310,196.536 93.400,196.703 93.400 C 196.990 93.400,197.785 93.774,198.000 94.010 C 198.148 94.173,200.382 95.200,200.589 95.200 C 200.687 95.200,200.797 95.273,200.833 95.362 C 200.870 95.451,201.350 95.827,201.900 96.198 C 202.450 96.570,202.945 96.928,203.000 96.994 C 203.055 97.060,203.550 97.471,204.100 97.907 C 206.506 99.815,208.976 102.801,210.299 105.400 C 210.495 105.785,210.721 106.145,210.801 106.200 C 210.881 106.255,211.187 107.020,211.482 107.900 C 211.777 108.780,212.101 109.680,212.204 109.900 C 213.397 112.473,213.444 121.255,212.283 124.754 C 212.017 125.554,211.800 126.379,211.800 126.587 C 211.800 127.397,214.201 129.400,215.173 129.400 C 215.371 129.400,215.599 129.466,215.680 129.547 C 216.006 129.873,218.229 130.175,220.386 130.187 C 222.687 130.200,223.457 130.060,224.869 129.374 C 225.292 129.168,225.718 129.000,225.817 129.000 C 226.035 129.000,226.479 128.636,228.070 127.152 C 228.746 126.520,229.360 126.002,229.434 126.002 C 229.507 126.001,229.772 125.663,230.023 125.250 C 230.274 124.838,230.529 124.455,230.589 124.400 C 230.901 124.118,231.621 122.539,231.874 121.584 C 232.032 120.988,232.270 120.230,232.403 119.900 C 232.705 119.152,232.727 113.085,232.433 111.800 C 232.320 111.305,232.081 110.243,231.903 109.440 C 231.179 106.174,229.493 102.525,226.952 98.722 C 225.283 96.223,222.505 93.162,219.490 90.500 C 218.868 89.950,218.239 89.388,218.093 89.250 C 217.948 89.113,217.779 89.000,217.718 89.000 C 217.657 89.000,217.358 88.776,217.053 88.501 C 215.989 87.543,215.299 87.000,215.141 87.000 C 215.054 87.000,214.747 86.782,214.460 86.515 C 214.172 86.249,213.524 85.821,213.018 85.565 C 212.513 85.309,212.070 85.033,212.033 84.950 C 211.997 84.868,211.839 84.800,211.683 84.800 C 211.528 84.800,211.400 84.710,211.400 84.600 C 211.400 84.490,211.265 84.400,211.100 84.400 C 210.935 84.400,210.800 84.310,210.800 84.200 C 210.800 84.090,210.664 84.000,210.497 84.000 C 210.210 84.000,209.416 83.627,209.200 83.391 C 208.986 83.156,206.842 82.200,206.530 82.200 C 206.349 82.200,206.200 82.110,206.200 82.000 C 206.200 81.890,206.020 81.800,205.800 81.800 C 205.580 81.800,205.400 81.710,205.400 81.600 C 205.400 81.490,205.130 81.400,204.800 81.400 C 204.470 81.400,204.200 81.310,204.200 81.200 C 204.200 81.090,204.025 81.000,203.812 81.000 C 203.598 81.000,203.368 80.910,203.300 80.800 C 203.232 80.690,203.000 80.600,202.785 80.600 C 202.570 80.600,202.216 80.510,201.997 80.400 C 201.779 80.290,201.421 80.110,201.203 80.000 C 200.984 79.890,200.585 79.800,200.315 79.800 C 200.045 79.800,199.768 79.710,199.700 79.600 C 199.632 79.490,199.317 79.400,199.000 79.400 C 198.683 79.400,198.368 79.310,198.300 79.200 C 198.232 79.090,197.951 79.000,197.675 79.000 C 197.399 79.000,197.008 78.911,196.806 78.803 C 196.604 78.695,195.800 78.547,195.019 78.474 C 194.239 78.402,193.600 78.265,193.600 78.171 C 193.600 78.077,193.110 78.000,192.512 78.000 C 191.913 78.000,191.368 77.910,191.300 77.800 C 191.232 77.690,190.687 77.600,190.088 77.600 C 189.490 77.600,189.000 77.510,189.000 77.400 C 189.000 77.283,188.333 77.200,187.400 77.200 C 186.520 77.200,185.800 77.114,185.800 77.010 C 185.800 76.677,171.084 76.276,170.600 76.596 M270.266 83.300 C 270.267 84.070,270.303 84.360,270.346 83.946 C 270.389 83.531,270.389 82.901,270.344 82.546 C 270.300 82.190,270.265 82.530,270.266 83.300 M300.881 85.300 C 300.881 87.060,300.912 87.753,300.949 86.841 C 300.986 85.928,300.986 84.488,300.948 83.641 C 300.911 82.793,300.881 83.540,300.881 85.300 M269.840 89.500 C 269.527 95.333,269.200 103.044,269.225 104.000 L 269.244 104.700 269.397 103.900 C 269.481 103.460,269.608 101.255,269.679 99.000 C 269.750 96.745,269.905 92.875,270.023 90.400 C 270.142 87.925,270.207 85.630,270.168 85.300 C 270.129 84.970,269.981 86.860,269.840 89.500 M247.936 85.741 C 247.650 86.204,246.794 95.582,246.827 97.900 C 246.844 99.144,246.907 98.748,247.112 96.116 C 247.257 94.255,247.567 91.163,247.801 89.246 C 248.191 86.054,248.221 85.281,247.936 85.741 M290.046 90.600 C 290.046 90.985,290.088 91.142,290.138 90.950 C 290.188 90.758,290.188 90.442,290.138 90.250 C 290.088 90.058,290.046 90.215,290.046 90.600 M300.666 91.500 C 300.667 92.270,300.703 92.560,300.746 92.146 C 300.789 91.731,300.789 91.101,300.744 90.746 C 300.700 90.390,300.665 90.730,300.666 91.500 M300.457 94.500 C 300.459 95.050,300.498 95.251,300.544 94.947 C 300.589 94.643,300.588 94.193,300.541 93.947 C 300.493 93.701,300.456 93.950,300.457 94.500 M300.250 96.500 C 300.253 96.940,300.294 97.096,300.341 96.848 C 300.389 96.599,300.387 96.239,300.337 96.048 C 300.287 95.856,300.248 96.060,300.250 96.500 M300.046 98.200 C 300.046 98.585,300.088 98.743,300.138 98.550 C 300.188 98.358,300.188 98.043,300.138 97.850 C 300.088 97.658,300.046 97.815,300.046 98.200 M246.471 99.950 C 246.271 100.359,246.235 329.315,246.434 331.100 C 246.985 336.020,249.540 339.950,253.400 341.814 C 254.115 342.160,254.856 342.523,255.047 342.621 C 255.238 342.719,255.750 342.800,256.185 342.800 C 256.620 342.800,257.032 342.890,257.100 343.000 C 257.265 343.267,262.735 343.267,262.900 343.000 C 262.968 342.890,263.290 342.800,263.615 342.800 C 263.940 342.800,264.362 342.720,264.553 342.622 C 264.744 342.524,265.350 342.231,265.900 341.972 C 266.450 341.712,266.930 341.433,266.967 341.350 C 267.003 341.267,267.122 341.200,267.231 341.200 C 267.455 341.200,267.714 340.952,268.354 340.123 L 268.800 339.546 268.800 245.773 L 268.800 152.000 274.200 152.000 C 277.910 152.000,279.600 151.933,279.600 151.785 C 279.600 151.635,281.225 151.609,285.050 151.698 C 288.048 151.768,293.875 151.842,298.000 151.862 L 305.500 151.900 305.569 151.000 C 305.775 148.334,304.291 143.800,303.214 143.800 C 303.096 143.800,303.000 143.710,303.000 143.600 C 303.000 143.490,302.775 143.400,302.500 143.400 C 302.225 143.400,302.000 143.310,302.000 143.200 C 302.000 143.090,301.735 143.000,301.412 143.000 C 301.088 143.000,300.768 142.910,300.700 142.800 C 300.620 142.671,296.898 142.600,290.188 142.600 C 283.396 142.600,279.800 142.531,279.800 142.400 C 279.800 142.290,279.580 142.200,279.312 142.200 C 279.043 142.200,278.768 142.290,278.700 142.400 C 278.632 142.510,278.177 142.600,277.688 142.600 C 276.640 142.600,276.506 142.238,277.350 141.686 C 277.653 141.488,277.998 141.231,278.117 141.113 C 278.236 140.996,278.585 140.720,278.892 140.500 C 279.198 140.280,279.551 139.987,279.675 139.850 C 279.799 139.712,280.890 138.571,282.100 137.314 C 285.260 134.031,285.860 133.362,286.621 132.278 C 287.452 131.093,287.504 131.024,288.027 130.400 C 288.257 130.125,288.593 129.675,288.771 129.400 C 288.950 129.125,289.169 128.810,289.257 128.700 C 289.602 128.269,290.849 126.258,291.240 125.500 C 291.468 125.060,291.722 124.655,291.806 124.600 C 292.098 124.409,294.971 118.282,295.784 116.119 C 296.998 112.886,296.759 113.072,295.424 116.400 C 291.297 126.685,284.577 135.715,276.194 142.241 L 275.500 142.781 287.100 142.798 C 304.184 142.822,304.864 143.081,305.341 149.750 L 305.459 151.400 287.030 151.400 L 268.600 151.400 268.600 245.299 L 268.600 339.199 267.904 339.970 C 263.248 345.123,251.572 342.758,248.219 335.983 C 246.409 332.325,246.586 345.914,246.647 215.004 C 246.676 151.532,246.687 99.600,246.671 99.600 C 246.656 99.600,246.566 99.758,246.471 99.950 M298.911 104.711 C 298.836 105.112,298.814 105.481,298.863 105.530 C 298.912 105.579,299.014 105.290,299.089 104.889 C 299.164 104.488,299.186 104.119,299.137 104.070 C 299.088 104.021,298.986 104.310,298.911 104.711 M298.155 107.950 C 297.855 109.133,297.560 110.325,297.499 110.600 L 297.389 111.100 297.598 110.623 C 297.908 109.917,298.840 106.219,298.765 105.994 C 298.729 105.888,298.455 106.768,298.155 107.950 M269.079 110.400 C 269.079 111.995,269.111 112.647,269.149 111.850 C 269.186 111.053,269.186 109.748,269.149 108.950 C 269.111 108.153,269.079 108.805,269.079 110.400 M286.618 111.218 C 286.483 111.670,286.409 112.076,286.454 112.121 C 286.499 112.166,286.647 111.833,286.782 111.382 C 286.917 110.930,286.991 110.524,286.946 110.479 C 286.901 110.434,286.753 110.767,286.618 111.218 M285.622 114.222 C 285.499 114.576,285.433 114.900,285.476 114.943 C 285.519 114.985,285.655 114.731,285.778 114.378 C 285.901 114.024,285.967 113.700,285.924 113.657 C 285.881 113.615,285.745 113.869,285.622 114.222 M268.885 119.900 C 268.885 122.320,268.914 123.283,268.949 122.039 C 268.985 120.795,268.984 118.815,268.949 117.639 C 268.914 116.463,268.885 117.480,268.885 119.900 M284.136 117.909 C 283.666 118.895,283.732 119.062,284.223 118.131 C 284.446 117.708,284.594 117.327,284.550 117.284 C 284.507 117.240,284.321 117.522,284.136 117.909 M282.121 121.750 C 281.926 122.163,281.493 122.931,281.158 123.458 C 280.823 123.984,280.595 124.462,280.653 124.519 C 280.710 124.577,281.071 124.101,281.455 123.462 C 282.443 121.816,282.837 121.000,282.642 121.000 C 282.550 121.000,282.315 121.338,282.121 121.750 M280.100 125.200 C 280.030 125.420,279.866 125.600,279.735 125.600 C 279.605 125.600,279.377 125.872,279.230 126.204 C 279.083 126.537,278.855 126.919,278.724 127.054 C 278.592 127.190,277.887 128.038,277.156 128.939 C 275.126 131.444,271.050 135.439,269.188 136.750 C 268.904 136.949,268.813 136.949,268.732 136.750 C 268.677 136.612,268.624 136.759,268.616 137.074 C 268.598 137.721,268.462 137.783,270.300 136.309 C 274.328 133.079,281.608 124.800,280.421 124.800 C 280.314 124.800,280.170 124.980,280.100 125.200 M268.686 131.300 C 268.686 133.940,268.715 134.992,268.749 133.639 C 268.784 132.285,268.784 130.125,268.749 128.839 C 268.714 127.552,268.686 128.660,268.686 131.300 M93.904 158.141 C 93.462 159.231,93.614 177.767,94.105 182.600 C 94.166 183.205,94.396 185.545,94.615 187.800 C 94.835 190.055,95.103 192.305,95.212 192.800 C 95.321 193.295,95.535 194.528,95.688 195.540 C 96.016 197.701,96.375 199.578,96.542 200.000 C 96.694 200.385,96.688 200.362,97.184 202.600 C 97.415 203.645,97.736 204.860,97.896 205.300 C 98.056 205.740,98.412 206.910,98.687 207.900 C 99.195 209.736,100.416 213.269,100.771 213.933 C 100.880 214.135,101.170 214.840,101.417 215.500 C 101.663 216.160,101.935 216.792,102.020 216.905 C 102.105 217.018,102.324 217.558,102.508 218.105 C 102.692 218.652,103.147 219.607,103.521 220.226 C 103.894 220.846,104.200 221.405,104.200 221.470 C 104.200 221.674,106.638 226.072,107.100 226.700 C 107.342 227.030,107.684 227.570,107.859 227.900 C 108.034 228.230,108.407 228.761,108.688 229.081 C 108.970 229.401,109.200 229.726,109.200 229.804 C 109.200 229.881,109.471 230.295,109.801 230.722 C 110.132 231.150,110.604 231.763,110.851 232.085 C 111.098 232.407,111.396 232.767,111.513 232.885 C 111.630 233.003,111.810 233.245,111.913 233.423 C 112.744 234.857,118.644 240.811,122.133 243.737 C 122.371 243.937,122.776 244.276,123.033 244.491 C 123.290 244.706,124.085 245.289,124.800 245.785 C 125.515 246.282,126.130 246.758,126.167 246.844 C 126.203 246.930,126.353 247.000,126.500 247.000 C 126.647 247.000,126.797 247.075,126.833 247.167 C 126.935 247.421,129.660 249.200,129.948 249.200 C 130.087 249.200,130.200 249.273,130.200 249.363 C 130.200 249.452,130.515 249.649,130.900 249.800 C 131.285 249.951,131.600 250.131,131.600 250.200 C 131.600 250.453,135.759 252.599,136.250 252.599 C 136.442 252.600,136.600 252.690,136.600 252.800 C 136.600 252.910,136.780 253.000,137.000 253.000 C 137.220 253.000,137.400 253.090,137.400 253.200 C 137.400 253.310,137.580 253.400,137.800 253.400 C 138.020 253.400,138.200 253.490,138.200 253.600 C 138.200 253.710,138.380 253.800,138.600 253.800 C 138.820 253.800,139.000 253.890,139.000 254.000 C 139.000 254.110,139.175 254.200,139.388 254.200 C 139.602 254.200,139.832 254.290,139.900 254.400 C 139.968 254.510,140.198 254.600,140.412 254.600 C 140.625 254.600,140.800 254.690,140.800 254.800 C 140.800 254.910,140.963 255.000,141.162 255.000 C 141.362 255.000,141.901 255.182,142.360 255.403 C 142.819 255.625,143.601 255.863,144.098 255.931 C 144.594 255.999,145.000 256.132,145.000 256.227 C 145.000 256.322,145.270 256.400,145.600 256.400 C 145.930 256.400,146.200 256.490,146.200 256.600 C 146.200 256.710,146.470 256.800,146.800 256.800 C 147.130 256.800,147.400 256.890,147.400 257.000 C 147.400 257.110,147.665 257.200,147.988 257.200 C 148.312 257.200,148.632 257.290,148.700 257.400 C 148.768 257.510,149.088 257.600,149.412 257.600 C 149.735 257.600,150.000 257.690,150.000 257.800 C 150.000 257.910,150.360 258.000,150.800 258.000 C 151.240 258.000,151.600 258.090,151.600 258.200 C 151.600 258.310,151.865 258.400,152.188 258.400 C 152.512 258.400,152.832 258.490,152.900 258.600 C 152.968 258.710,153.419 258.800,153.902 258.800 C 154.386 258.800,154.988 258.880,155.241 258.978 C 155.849 259.213,158.322 259.589,160.250 259.739 C 161.103 259.805,161.800 259.936,161.800 260.030 C 161.800 260.123,162.682 260.200,163.760 260.200 C 164.838 260.200,165.806 260.283,165.910 260.385 C 166.478 260.937,181.749 260.921,182.300 260.368 C 182.434 260.234,181.111 260.212,178.300 260.303 C 140.068 261.536,110.859 242.829,99.762 210.000 C 95.354 196.958,93.334 180.792,93.993 163.827 C 94.216 158.104,94.205 157.400,93.904 158.141 M116.488 170.900 C 116.487 173.870,116.515 175.113,116.549 173.662 C 116.584 172.211,116.584 169.781,116.550 168.262 C 116.516 166.743,116.488 167.930,116.488 170.900 M116.600 178.704 C 116.600 179.729,117.228 186.125,117.503 187.900 C 117.834 190.032,117.792 189.243,117.289 183.800 C 117.131 182.095,117.001 180.188,117.001 179.562 C 117.000 178.936,116.910 178.368,116.800 178.300 C 116.686 178.230,116.600 178.403,116.600 178.704 M221.350 185.248 C 220.718 185.357,220.200 185.525,220.200 185.623 C 220.200 185.720,219.930 185.800,219.600 185.800 C 219.270 185.800,219.000 185.890,219.000 186.000 C 219.000 186.110,218.820 186.200,218.600 186.200 C 218.380 186.200,218.200 186.290,218.200 186.400 C 218.200 186.510,218.063 186.600,217.896 186.600 C 215.900 186.600,212.097 191.621,211.291 195.319 C 210.985 196.724,210.593 212.040,210.870 211.786 C 210.938 211.724,211.012 209.249,211.035 206.286 C 211.116 195.543,211.668 192.902,214.508 189.656 C 218.678 184.888,226.849 184.218,232.136 188.209 L 233.195 189.009 233.254 195.955 L 233.312 202.900 233.306 195.739 L 233.300 188.579 232.526 187.910 C 231.856 187.331,230.477 186.560,229.100 185.993 C 227.045 185.147,223.776 184.833,221.350 185.248 M117.800 190.053 C 117.800 191.504,119.588 199.422,120.832 203.476 C 127.570 225.451,143.656 242.018,162.700 246.599 C 170.297 248.426,181.443 248.457,191.792 246.680 C 193.382 246.407,194.732 246.133,194.792 246.072 C 194.940 245.920,192.266 246.191,191.400 246.416 C 191.015 246.516,190.323 246.598,189.862 246.599 C 189.401 246.599,188.968 246.690,188.900 246.800 C 188.832 246.910,188.125 247.000,187.328 247.000 C 186.532 247.000,185.795 247.083,185.690 247.184 C 185.112 247.743,168.483 247.744,167.910 247.185 C 167.806 247.083,167.293 247.000,166.772 247.000 C 166.250 247.000,165.768 246.910,165.700 246.800 C 165.632 246.690,165.346 246.600,165.065 246.600 C 163.855 246.600,160.753 245.886,159.753 245.377 C 159.562 245.279,159.230 245.200,159.015 245.200 C 158.800 245.200,158.568 245.110,158.500 245.000 C 158.432 244.890,158.157 244.800,157.888 244.800 C 157.620 244.800,157.400 244.710,157.400 244.600 C 157.400 244.490,157.229 244.400,157.019 244.400 C 156.809 244.400,156.292 244.228,155.869 244.019 C 154.903 243.540,153.915 243.122,152.950 242.783 C 152.537 242.638,152.200 242.465,152.200 242.397 C 152.200 242.330,151.885 242.151,151.500 242.000 C 151.115 241.849,150.800 241.652,150.800 241.563 C 150.800 241.473,150.620 241.400,150.400 241.400 C 150.180 241.400,150.000 241.310,150.000 241.200 C 150.000 241.090,149.865 241.000,149.700 241.000 C 149.535 241.000,149.400 240.925,149.400 240.834 C 149.400 240.742,149.153 240.541,148.850 240.386 C 147.888 239.893,146.103 238.739,146.033 238.567 C 145.997 238.475,145.885 238.400,145.786 238.400 C 145.686 238.400,145.446 238.269,145.252 238.109 C 145.059 237.949,144.354 237.387,143.686 236.859 C 143.018 236.332,142.131 235.630,141.714 235.300 C 141.298 234.970,140.331 234.093,139.566 233.350 C 138.801 232.607,138.090 232.000,137.987 232.000 C 137.884 232.000,137.800 231.919,137.800 231.820 C 137.800 231.721,137.148 230.958,136.350 230.124 C 135.553 229.290,134.675 228.320,134.400 227.969 C 134.125 227.617,133.809 227.233,133.697 227.115 C 133.586 226.997,133.114 226.405,132.648 225.800 C 132.183 225.195,131.617 224.475,131.390 224.200 C 131.164 223.925,130.805 223.430,130.592 223.100 C 129.272 221.048,127.963 218.990,127.539 218.300 C 126.489 216.591,124.531 212.594,123.669 210.400 C 123.172 209.135,122.545 207.546,122.277 206.870 C 122.008 206.193,121.653 205.121,121.488 204.488 C 121.323 203.854,121.066 203.058,120.916 202.718 C 120.618 202.042,119.172 196.220,118.825 194.300 C 118.133 190.467,117.800 189.088,117.800 190.053 M210.500 240.506 C 210.170 240.777,209.743 240.998,209.550 240.999 C 209.357 241.000,209.200 241.090,209.200 241.200 C 209.200 241.310,209.020 241.400,208.800 241.400 C 208.580 241.400,208.400 241.490,208.400 241.600 C 208.400 241.710,208.175 241.800,207.900 241.800 C 207.625 241.800,207.400 241.890,207.400 242.000 C 207.400 242.110,207.225 242.200,207.012 242.200 C 206.798 242.200,206.571 242.285,206.507 242.388 C 206.443 242.492,205.987 242.637,205.493 242.712 C 204.999 242.786,204.546 242.926,204.486 243.023 C 204.426 243.120,204.162 243.200,203.900 243.200 C 203.638 243.200,203.368 243.290,203.300 243.400 C 203.232 243.510,202.962 243.600,202.700 243.600 C 202.438 243.600,202.168 243.690,202.100 243.800 C 202.032 243.910,201.755 244.000,201.485 244.000 C 201.215 244.000,200.793 244.104,200.547 244.231 C 199.559 244.742,199.383 244.800,198.815 244.800 C 198.490 244.800,198.168 244.890,198.100 245.000 C 198.032 245.110,197.762 245.200,197.500 245.200 C 197.238 245.200,196.968 245.290,196.900 245.400 C 196.708 245.711,197.052 245.650,199.665 244.913 C 205.297 243.324,210.750 241.180,211.021 240.449 C 211.223 239.903,211.238 239.901,210.500 240.506 M195.400 245.804 C 195.400 245.925,195.623 245.954,195.950 245.876 C 196.735 245.687,196.762 245.600,196.033 245.600 C 195.685 245.600,195.400 245.692,195.400 245.804 M207.100 255.617 C 201.929 257.369,196.820 258.527,190.000 259.491 L 187.900 259.788 189.949 259.678 C 191.076 259.618,192.786 259.434,193.749 259.270 C 194.712 259.106,195.905 258.925,196.400 258.867 C 196.895 258.809,197.385 258.680,197.490 258.581 C 197.594 258.481,198.062 258.400,198.528 258.400 C 198.995 258.400,199.432 258.310,199.500 258.200 C 199.568 258.090,199.973 258.000,200.400 258.000 C 200.827 258.000,201.232 257.910,201.300 257.800 C 201.368 257.690,201.688 257.600,202.012 257.600 C 202.335 257.600,202.600 257.510,202.600 257.400 C 202.600 257.290,202.915 257.200,203.300 257.200 C 203.685 257.200,204.000 257.110,204.000 257.000 C 204.000 256.890,204.315 256.800,204.700 256.800 C 205.085 256.800,205.400 256.710,205.400 256.600 C 205.400 256.490,205.670 256.400,206.000 256.400 C 206.330 256.400,206.600 256.310,206.600 256.200 C 206.600 256.090,206.777 256.000,206.993 256.000 C 207.419 256.000,209.043 255.507,209.720 255.172 C 209.951 255.058,210.354 254.995,210.615 255.032 C 210.942 255.079,211.112 254.991,211.160 254.750 C 211.260 254.246,210.945 254.313,207.100 255.617 M184.500 260.000 L 183.100 260.129 185.050 260.165 C 186.240 260.186,187.000 260.122,187.000 260.000 C 187.000 259.790,186.772 259.790,184.500 260.000 M210.300 260.800 C 210.232 260.910,209.872 261.000,209.500 261.000 C 209.128 261.000,208.768 261.090,208.700 261.200 C 208.632 261.310,208.227 261.400,207.800 261.400 C 207.373 261.400,206.968 261.490,206.900 261.600 C 206.832 261.710,206.512 261.800,206.188 261.800 C 205.865 261.800,205.600 261.890,205.600 262.000 C 205.600 262.110,205.330 262.200,205.000 262.200 C 204.670 262.200,204.400 262.290,204.400 262.400 C 204.400 262.510,204.225 262.600,204.012 262.600 C 203.798 262.600,203.568 262.690,203.500 262.800 C 203.432 262.910,203.202 263.000,202.988 263.000 C 202.775 263.000,202.600 263.090,202.600 263.200 C 202.600 263.455,202.392 263.502,204.700 262.728 C 205.800 262.359,207.600 261.848,208.700 261.592 C 210.653 261.139,211.823 260.600,210.855 260.600 C 210.618 260.600,210.368 260.690,210.300 260.800 M200.863 263.774 C 200.403 263.957,199.961 264.173,199.880 264.253 C 199.799 264.334,199.568 264.400,199.367 264.400 C 199.165 264.400,199.000 264.490,199.000 264.600 C 199.000 264.710,198.864 264.800,198.697 264.800 C 198.404 264.800,197.603 265.180,197.400 265.416 C 197.345 265.480,197.008 265.659,196.650 265.815 C 196.293 265.970,196.000 266.166,196.000 266.249 C 196.000 266.332,195.865 266.400,195.700 266.400 C 195.535 266.400,195.400 266.469,195.400 266.553 C 195.400 266.637,195.024 266.869,194.565 267.068 C 194.105 267.267,193.346 267.693,192.879 268.015 C 192.411 268.337,191.973 268.600,191.905 268.600 C 191.837 268.600,191.572 268.803,191.316 269.050 C 190.553 269.787,190.008 270.200,189.798 270.200 C 189.689 270.200,189.600 270.284,189.600 270.387 C 189.600 270.489,189.442 270.624,189.250 270.686 C 189.058 270.748,188.477 271.182,187.960 271.649 C 187.442 272.117,186.639 272.815,186.174 273.200 C 184.564 274.534,179.819 279.496,179.313 280.375 C 179.210 280.554,179.007 280.819,178.862 280.965 C 178.406 281.423,175.926 285.053,175.354 286.099 C 172.848 290.685,171.306 294.525,170.216 298.900 C 169.915 300.110,169.616 301.235,169.552 301.400 C 169.364 301.883,169.046 303.940,168.808 306.200 C 168.687 307.355,168.478 308.885,168.344 309.600 C 168.028 311.288,168.029 321.338,168.345 322.600 C 168.470 323.095,168.677 324.310,168.807 325.300 C 169.034 327.030,170.651 332.484,171.001 332.701 C 171.094 332.758,171.278 333.142,171.409 333.553 C 171.636 334.263,172.146 335.132,173.777 337.589 C 175.179 339.700,178.627 342.860,180.350 343.614 C 180.708 343.770,181.000 343.966,181.000 344.049 C 181.000 344.132,181.173 344.200,181.383 344.200 C 181.594 344.200,181.797 344.268,181.833 344.350 C 181.970 344.658,184.477 345.800,185.016 345.800 C 185.324 345.800,185.632 345.890,185.700 346.000 C 185.768 346.110,186.038 346.200,186.300 346.200 C 186.562 346.200,186.824 346.277,186.882 346.371 C 186.941 346.466,187.778 346.611,188.744 346.693 C 189.710 346.776,190.950 346.895,191.500 346.958 C 192.767 347.103,195.625 347.093,196.800 346.939 C 197.295 346.874,198.761 346.757,200.057 346.679 C 201.354 346.601,202.462 346.462,202.519 346.369 C 202.577 346.276,203.018 346.200,203.500 346.200 C 203.982 346.200,204.432 346.110,204.500 346.000 C 204.568 345.890,204.933 345.800,205.312 345.800 C 205.690 345.800,206.000 345.710,206.000 345.600 C 206.000 345.490,206.270 345.400,206.600 345.400 C 206.930 345.400,207.200 345.310,207.200 345.200 C 207.200 345.090,207.425 345.000,207.700 345.000 C 207.975 345.000,208.200 344.910,208.200 344.800 C 208.200 344.690,208.425 344.600,208.700 344.600 C 208.975 344.600,209.200 344.510,209.200 344.400 C 209.200 344.290,209.425 344.200,209.700 344.200 C 209.975 344.200,210.200 344.110,210.200 344.000 C 210.200 343.890,210.336 343.800,210.503 343.800 C 210.669 343.800,210.962 343.723,211.153 343.628 C 213.244 342.593,213.898 342.223,214.435 341.767 C 214.781 341.473,215.296 341.113,215.581 340.967 C 215.865 340.820,216.365 340.475,216.691 340.200 C 217.781 339.283,219.496 337.704,219.800 337.339 C 219.965 337.141,220.492 336.562,220.971 336.053 C 221.451 335.543,222.080 334.761,222.370 334.313 C 222.659 333.866,222.948 333.455,223.011 333.400 C 223.119 333.306,224.623 330.799,225.555 329.158 C 226.078 328.239,228.000 323.721,228.000 323.412 C 228.000 323.288,228.128 322.987,228.284 322.743 C 228.968 321.675,231.167 312.890,231.695 309.115 C 232.189 305.581,232.017 305.631,231.401 309.200 C 227.126 333.973,216.287 345.498,196.300 346.519 C 174.867 347.614,164.372 330.438,169.614 302.841 C 172.932 285.374,185.303 270.305,201.700 263.758 C 202.162 263.574,202.331 263.439,202.100 263.440 C 201.880 263.441,201.323 263.591,200.863 263.774 M208.400 274.523 C 197.668 277.809,189.173 285.060,184.295 295.100 C 183.042 297.678,181.463 301.930,181.679 302.145 C 181.804 302.271,181.806 302.268,182.491 300.200 C 183.153 298.203,184.220 295.665,184.761 294.800 C 185.002 294.415,185.297 293.808,185.415 293.450 C 185.534 293.093,185.707 292.800,185.799 292.800 C 185.892 292.800,186.171 292.350,186.419 291.800 C 186.668 291.250,186.930 290.800,187.002 290.800 C 187.074 290.800,187.413 290.373,187.757 289.850 C 188.100 289.328,188.610 288.639,188.890 288.319 C 189.171 287.999,189.400 287.679,189.400 287.606 C 189.400 287.297,194.979 281.800,195.293 281.800 C 195.354 281.800,195.669 281.546,195.994 281.236 C 196.319 280.925,196.903 280.500,197.292 280.290 C 197.682 280.081,198.000 279.840,198.000 279.755 C 198.000 279.670,198.095 279.600,198.211 279.600 C 198.327 279.600,198.952 279.240,199.600 278.800 C 200.248 278.360,200.873 278.000,200.989 278.000 C 201.105 278.000,201.200 277.932,201.200 277.849 C 201.200 277.702,201.631 277.500,203.300 276.864 C 203.740 276.696,204.256 276.478,204.447 276.379 C 204.638 276.281,204.931 276.200,205.097 276.200 C 205.264 276.200,205.400 276.110,205.400 276.000 C 205.400 275.890,205.625 275.800,205.900 275.800 C 206.175 275.800,206.400 275.710,206.400 275.600 C 206.400 275.490,206.625 275.400,206.900 275.400 C 207.175 275.400,207.400 275.310,207.400 275.200 C 207.400 275.090,207.670 275.000,208.000 275.000 C 208.330 275.000,208.600 274.910,208.600 274.800 C 208.600 274.690,208.915 274.600,209.300 274.600 C 209.685 274.600,210.000 274.510,210.000 274.400 C 210.000 274.290,210.220 274.200,210.488 274.200 C 210.757 274.200,211.032 274.110,211.100 274.000 C 211.295 273.685,210.860 273.769,208.400 274.523 M233.077 292.200 C 233.077 293.575,233.109 294.137,233.148 293.450 C 233.187 292.762,233.187 291.637,233.148 290.950 C 233.109 290.262,233.077 290.825,233.077 292.200 M210.722 293.650 C 210.664 294.228,210.564 296.617,210.500 298.961 C 210.436 301.304,210.299 304.409,210.196 305.861 C 209.820 311.124,209.804 311.636,210.088 309.300 C 210.581 305.246,211.230 292.600,210.945 292.600 C 210.881 292.600,210.781 293.072,210.722 293.650 M232.796 296.250 C 232.794 296.938,232.662 298.833,232.504 300.463 C 231.991 305.752,231.980 305.928,232.178 305.481 C 232.554 304.635,233.246 295.000,232.931 295.000 C 232.859 295.000,232.798 295.563,232.796 296.250 M181.222 303.451 C 180.918 304.746,180.198 308.600,180.206 308.889 C 180.220 309.362,180.564 308.439,180.687 307.600 C 180.828 306.635,181.075 305.336,181.438 303.649 C 181.735 302.269,181.541 302.092,181.222 303.451 M180.050 310.500 C 180.053 310.940,180.094 311.096,180.141 310.848 C 180.189 310.599,180.187 310.239,180.137 310.048 C 180.087 309.856,180.048 310.060,180.050 310.500 M179.866 312.900 C 179.867 313.670,179.903 313.960,179.946 313.546 C 179.989 313.131,179.989 312.501,179.944 312.146 C 179.900 311.790,179.865 312.130,179.866 312.900 M209.563 312.400 C 209.502 312.785,209.211 314.575,208.918 316.377 C 208.625 318.180,208.419 319.755,208.461 319.877 C 208.613 320.324,209.876 312.603,209.746 312.020 C 209.707 311.844,209.624 312.015,209.563 312.400 M179.674 317.000 C 179.674 318.155,179.707 318.628,179.747 318.050 C 179.788 317.473,179.788 316.528,179.747 315.950 C 179.707 315.373,179.674 315.845,179.674 317.000 M179.860 320.400 C 179.860 321.005,179.897 321.253,179.943 320.950 C 179.989 320.648,179.989 320.153,179.943 319.850 C 179.897 319.548,179.860 319.795,179.860 320.400 M207.934 321.250 C 207.750 321.882,207.461 322.918,207.291 323.550 C 207.121 324.183,206.858 324.970,206.707 325.300 C 204.445 330.231,204.481 330.169,202.347 332.654 C 201.635 333.483,199.763 334.800,199.296 334.800 C 199.133 334.800,199.000 334.890,199.000 335.000 C 199.000 335.110,198.820 335.200,198.600 335.200 C 198.380 335.200,198.200 335.290,198.200 335.400 C 198.200 335.510,197.890 335.600,197.512 335.600 C 197.133 335.600,196.768 335.690,196.700 335.800 C 196.632 335.910,195.822 336.000,194.900 336.000 C 193.978 336.000,193.168 335.910,193.100 335.800 C 193.032 335.690,192.532 335.600,191.988 335.600 C 191.445 335.600,191.000 335.510,191.000 335.400 C 191.000 335.290,190.685 335.200,190.300 335.200 C 189.915 335.200,189.600 335.110,189.600 335.000 C 189.600 334.890,189.472 334.800,189.316 334.800 C 188.458 334.800,186.036 333.235,184.540 331.714 C 182.702 329.846,181.856 328.342,180.877 325.200 C 180.150 322.867,179.970 322.870,180.610 325.204 C 183.468 335.636,196.163 340.036,202.631 332.836 C 205.053 330.139,208.742 322.116,208.342 320.413 C 208.301 320.241,208.118 320.618,207.934 321.250 " stroke="none" fill="#280c2c" fill-rule="evenodd"></path><path id="path2" d="M300.646 88.400 C 300.646 88.785,300.688 88.942,300.738 88.750 C 300.788 88.558,300.788 88.243,300.738 88.050 C 300.688 87.858,300.646 88.015,300.646 88.400 M117.887 99.250 L 117.300 99.900 117.950 99.313 C 118.308 98.990,118.600 98.697,118.600 98.663 C 118.600 98.508,118.435 98.644,117.887 99.250 M268.850 113.300 C 268.853 113.740,268.894 113.896,268.941 113.648 C 268.989 113.399,268.987 113.039,268.937 112.848 C 268.887 112.656,268.848 112.860,268.850 113.300 M268.654 123.200 C 268.654 123.695,268.693 123.897,268.741 123.650 C 268.789 123.403,268.789 122.998,268.741 122.750 C 268.693 122.503,268.654 122.705,268.654 123.200 M268.499 245.300 C 268.499 297.000,268.522 318.120,268.550 292.234 C 268.578 266.347,268.578 224.047,268.550 198.234 C 268.522 172.420,268.499 193.600,268.499 245.300 M177.352 248.141 C 177.601 248.189,177.961 248.187,178.152 248.137 C 178.344 248.087,178.140 248.048,177.700 248.050 C 177.260 248.053,177.104 248.094,177.352 248.141 M174.850 260.338 C 175.043 260.388,175.358 260.388,175.550 260.338 C 175.743 260.288,175.585 260.246,175.200 260.246 C 174.815 260.246,174.658 260.288,174.850 260.338 M211.057 292.100 C 211.059 292.650,211.098 292.851,211.144 292.547 C 211.189 292.243,211.188 291.793,211.141 291.547 C 211.093 291.301,211.056 291.550,211.057 292.100 M194.650 336.338 C 194.843 336.388,195.158 336.388,195.350 336.338 C 195.543 336.288,195.385 336.246,195.000 336.246 C 194.615 336.246,194.458 336.288,194.650 336.338 M193.746 346.544 C 194.101 346.589,194.731 346.589,195.146 346.546 C 195.560 346.503,195.270 346.467,194.500 346.466 C 193.730 346.465,193.390 346.500,193.746 346.544 " stroke="none" fill="#730c82" fill-rule="evenodd"></path><path id="path3" d="M278.250 62.538 C 278.443 62.588,278.757 62.588,278.950 62.538 C 279.143 62.488,278.985 62.446,278.600 62.446 C 278.215 62.446,278.058 62.488,278.250 62.538 M174.357 76.948 C 174.938 76.988,175.838 76.988,176.357 76.947 C 176.876 76.906,176.400 76.873,175.300 76.873 C 174.200 76.874,173.776 76.907,174.357 76.948 M300.646 82.200 C 300.646 82.585,300.688 82.743,300.738 82.550 C 300.788 82.358,300.788 82.043,300.738 81.850 C 300.688 81.658,300.646 81.815,300.646 82.200 M173.053 88.944 C 173.357 88.989,173.807 88.988,174.053 88.941 C 174.299 88.893,174.050 88.856,173.500 88.857 C 172.950 88.859,172.749 88.898,173.053 88.944 M175.146 88.944 C 175.501 88.989,176.131 88.989,176.546 88.946 C 176.960 88.903,176.670 88.867,175.900 88.866 C 175.130 88.865,174.790 88.900,175.146 88.944 M300.646 89.600 C 300.646 89.985,300.688 90.142,300.738 89.950 C 300.788 89.758,300.788 89.442,300.738 89.250 C 300.688 89.058,300.646 89.215,300.646 89.600 M221.600 93.100 C 222.197 93.705,222.731 94.200,222.786 94.200 C 222.841 94.200,222.397 93.705,221.800 93.100 C 221.203 92.495,220.669 92.000,220.614 92.000 C 220.559 92.000,221.003 92.495,221.600 93.100 M119.087 98.050 L 118.500 98.700 119.150 98.113 C 119.508 97.790,119.800 97.497,119.800 97.463 C 119.800 97.308,119.635 97.444,119.087 98.050 M116.687 100.450 L 116.100 101.100 116.750 100.513 C 117.108 100.190,117.400 99.897,117.400 99.863 C 117.400 99.708,117.235 99.844,116.687 100.450 M269.250 100.900 C 269.253 101.340,269.294 101.496,269.341 101.248 C 269.389 100.999,269.387 100.639,269.337 100.448 C 269.287 100.256,269.248 100.460,269.250 100.900 M246.650 104.100 C 246.653 104.540,246.694 104.696,246.741 104.448 C 246.789 104.199,246.787 103.839,246.737 103.648 C 246.687 103.456,246.648 103.660,246.650 104.100 M269.054 106.800 C 269.054 107.295,269.093 107.498,269.141 107.250 C 269.189 107.003,269.189 106.597,269.141 106.350 C 269.093 106.103,269.054 106.305,269.054 106.800 M268.854 114.800 C 268.854 115.295,268.893 115.498,268.941 115.250 C 268.989 115.003,268.989 114.597,268.941 114.350 C 268.893 114.103,268.854 114.305,268.854 114.800 M268.666 125.300 C 268.667 126.070,268.703 126.360,268.746 125.946 C 268.789 125.531,268.789 124.901,268.744 124.546 C 268.700 124.190,268.665 124.530,268.666 125.300 M281.694 137.250 L 280.500 138.500 281.750 137.306 C 282.438 136.650,283.000 136.087,283.000 136.056 C 283.000 135.908,282.803 136.089,281.694 137.250 M116.446 165.000 C 116.446 165.385,116.488 165.543,116.538 165.350 C 116.588 165.158,116.588 164.843,116.538 164.650 C 116.488 164.458,116.446 164.615,116.446 165.000 M93.881 169.600 C 93.881 171.415,93.912 172.158,93.949 171.250 C 93.986 170.343,93.986 168.858,93.949 167.950 C 93.912 167.043,93.881 167.785,93.881 169.600 M116.446 176.800 C 116.446 177.185,116.488 177.343,116.538 177.150 C 116.588 176.958,116.588 176.643,116.538 176.450 C 116.488 176.258,116.446 176.415,116.446 176.800 M233.098 237.100 C 233.098 263.390,233.122 274.115,233.150 260.934 C 233.178 247.753,233.178 226.243,233.150 213.134 C 233.122 200.025,233.098 210.810,233.098 237.100 M211.077 203.800 C 211.077 205.175,211.109 205.738,211.148 205.050 C 211.187 204.363,211.187 203.238,211.148 202.550 C 211.109 201.863,211.077 202.425,211.077 203.800 M211.095 222.800 C 211.095 231.655,211.120 235.278,211.150 230.850 C 211.180 226.423,211.180 219.178,211.150 214.750 C 211.120 210.322,211.095 213.945,211.095 222.800 M136.400 230.863 C 136.400 230.897,136.692 231.190,137.050 231.513 L 137.700 232.100 137.113 231.450 C 136.565 230.844,136.400 230.708,136.400 230.863 M138.200 232.663 C 138.200 232.697,138.493 232.990,138.850 233.313 L 139.500 233.900 138.913 233.250 C 138.365 232.644,138.200 232.508,138.200 232.663 M174.456 248.147 C 174.982 248.189,175.792 248.188,176.256 248.146 C 176.720 248.104,176.290 248.070,175.300 248.071 C 174.310 248.072,173.930 248.106,174.456 248.147 M172.546 260.344 C 172.901 260.389,173.531 260.389,173.946 260.346 C 174.360 260.303,174.070 260.267,173.300 260.266 C 172.530 260.265,172.190 260.300,172.546 260.344 M176.450 260.346 C 176.863 260.389,177.538 260.389,177.950 260.346 C 178.363 260.303,178.025 260.267,177.200 260.267 C 176.375 260.267,176.038 260.303,176.450 260.346 M211.089 284.800 C 211.089 288.375,211.116 289.838,211.150 288.050 C 211.183 286.262,211.183 283.338,211.150 281.550 C 211.116 279.762,211.089 281.225,211.089 284.800 M233.075 287.700 C 233.075 288.910,233.108 289.379,233.148 288.743 C 233.188 288.106,233.187 287.116,233.147 286.543 C 233.107 285.969,233.074 286.490,233.075 287.700 M210.846 298.000 C 210.846 298.385,210.888 298.543,210.938 298.350 C 210.988 298.157,210.988 297.843,210.938 297.650 C 210.888 297.457,210.846 297.615,210.846 298.000 " stroke="none" fill="#5c0c6c" fill-rule="evenodd"></path><path id="path4" d="M292.600 58.900 C 292.973 59.285,293.323 59.600,293.378 59.600 C 293.433 59.600,293.173 59.285,292.800 58.900 C 292.427 58.515,292.077 58.200,292.022 58.200 C 291.967 58.200,292.227 58.515,292.600 58.900 M285.000 65.100 C 285.373 65.485,285.723 65.800,285.778 65.800 C 285.833 65.800,285.573 65.485,285.200 65.100 C 284.827 64.715,284.477 64.400,284.422 64.400 C 284.367 64.400,284.627 64.715,285.000 65.100 M290.264 84.400 C 290.264 85.115,290.300 85.408,290.345 85.050 C 290.389 84.692,290.389 84.108,290.345 83.750 C 290.300 83.392,290.264 83.685,290.264 84.400 M300.674 85.800 C 300.674 86.955,300.707 87.428,300.747 86.850 C 300.788 86.273,300.788 85.328,300.747 84.750 C 300.707 84.173,300.674 84.645,300.674 85.800 M290.264 87.600 C 290.264 88.315,290.300 88.608,290.345 88.250 C 290.389 87.892,290.389 87.308,290.345 86.950 C 290.300 86.593,290.264 86.885,290.264 87.600 M269.246 98.800 C 269.246 99.185,269.288 99.343,269.338 99.150 C 269.388 98.958,269.388 98.642,269.338 98.450 C 269.288 98.258,269.246 98.415,269.246 98.800 M140.295 103.650 L 138.900 105.100 140.350 103.705 C 141.148 102.938,141.800 102.286,141.800 102.255 C 141.800 102.109,141.590 102.303,140.295 103.650 M269.046 104.600 C 269.046 104.985,269.088 105.142,269.138 104.950 C 269.188 104.758,269.188 104.442,269.138 104.250 C 269.088 104.058,269.046 104.215,269.046 104.600 M246.654 106.400 C 246.654 106.895,246.693 107.097,246.741 106.850 C 246.789 106.603,246.789 106.197,246.741 105.950 C 246.693 105.703,246.654 105.905,246.654 106.400 M268.850 111.900 C 268.853 112.340,268.894 112.496,268.941 112.248 C 268.989 111.999,268.987 111.639,268.937 111.448 C 268.887 111.256,268.848 111.460,268.850 111.900 M232.264 116.000 C 232.264 116.715,232.300 117.008,232.345 116.650 C 232.389 116.293,232.389 115.708,232.345 115.350 C 232.300 114.993,232.264 115.285,232.264 116.000 M268.660 121.400 C 268.660 122.005,268.697 122.253,268.743 121.950 C 268.789 121.647,268.789 121.153,268.743 120.850 C 268.697 120.547,268.660 120.795,268.660 121.400 M228.491 126.050 L 227.700 126.900 228.550 126.109 C 229.018 125.675,229.400 125.292,229.400 125.259 C 229.400 125.108,229.226 125.260,228.491 126.050 M268.469 135.100 C 268.469 135.980,268.504 136.315,268.547 135.845 C 268.589 135.374,268.588 134.654,268.545 134.245 C 268.502 133.835,268.468 134.220,268.469 135.100 M280.964 142.950 C 284.080 142.981,289.120 142.981,292.164 142.950 C 295.209 142.919,292.660 142.893,286.500 142.893 C 280.340 142.893,277.849 142.919,280.964 142.950 M116.266 170.900 C 116.267 171.670,116.303 171.960,116.346 171.546 C 116.389 171.131,116.389 170.501,116.344 170.146 C 116.300 169.790,116.265 170.130,116.266 170.900 M211.054 293.800 C 211.054 294.295,211.093 294.498,211.141 294.250 C 211.189 294.002,211.189 293.598,211.141 293.350 C 211.093 293.103,211.054 293.305,211.054 293.800 M168.454 314.200 C 168.454 314.695,168.493 314.898,168.541 314.650 C 168.589 314.403,168.589 313.998,168.541 313.750 C 168.493 313.503,168.454 313.705,168.454 314.200 M202.287 333.250 L 201.700 333.900 202.350 333.313 C 202.956 332.765,203.092 332.600,202.937 332.600 C 202.903 332.600,202.610 332.893,202.287 333.250 " stroke="none" fill="#900ca3" fill-rule="evenodd"></path></g></svg>