<svg width="48" height="48" viewBox="0 0 48 48" fill="none" xmlns="http://www.w3.org/2000/svg">
  <defs>
    <linearGradient id="logoGradient" x1="0%" y1="0%" x2="100%" y2="100%">
      <stop offset="0%" style="stop-color:#a74fed;stop-opacity:1" />
      <stop offset="50%" style="stop-color:#9333ea;stop-opacity:1" />
      <stop offset="100%" style="stop-color:#b155f7;stop-opacity:1" />
    </linearGradient>
    <filter id="softGlow">
      <feGaussianBlur stdDeviation="1" result="coloredBlur"/>
      <feMerge> 
        <feMergeNode in="coloredBlur"/>
        <feMergeNode in="SourceGraphic"/>
      </feMerge>
    </filter>
  </defs>
  
  <!-- Ornate Letter G -->
  <path d="M6 24 C6 12, 14 4, 20 4 C26 4, 32 8, 32 16 C32 17, 31 18, 30 18 C29 18, 28 17, 28 16 C28 11, 24 8, 20 8 C16 8, 10 13, 10 24 C10 35, 16 40, 20 40 C24 40, 26 37, 26 34 L26 30 L20 30 C19 30, 18 29, 18 28 C18 27, 19 26, 20 26 L28 26 C29 26, 30 27, 30 28 L30 34 C30 40, 26 44, 20 44 C14 44, 6 36, 6 24 Z" 
        fill="url(#logoGradient)"
        filter="url(#softGlow)"/>
  
  <!-- Ornate Letter F -->
  <path d="M34 4 C35 4, 36 5, 36 6 L36 16 L42 16 C43 16, 44 17, 44 18 C44 19, 43 20, 42 20 L36 20 L36 28 L40 28 C41 28, 42 29, 42 30 C42 31, 41 32, 40 32 L36 32 L36 42 C36 43, 35 44, 34 44 C33 44, 32 43, 32 42 L32 6 C32 5, 33 4, 34 4 Z" 
        fill="url(#logoGradient)"
        filter="url(#softGlow)"/>
  
  <!-- Decorative flourishes top left -->
  <path d="M2 8 Q4 6, 6 8 Q8 10, 6 12 Q4 14, 2 12 Q0 10, 2 8" 
        stroke="url(#logoGradient)" 
        stroke-width="1" 
        stroke-linecap="round" 
        fill="none" 
        opacity="0.6"/>
  
  <!-- Decorative flourishes top right -->
  <path d="M46 8 Q44 6, 42 8 Q40 10, 42 12 Q44 14, 46 12 Q48 10, 46 8" 
        stroke="url(#logoGradient)" 
        stroke-width="1" 
        stroke-linecap="round" 
        fill="none" 
        opacity="0.6"/>
  
  <!-- Decorative flourishes bottom left -->
  <path d="M2 40 Q4 38, 6 40 Q8 42, 6 44 Q4 46, 2 44 Q0 42, 2 40" 
        stroke="url(#logoGradient)" 
        stroke-width="1" 
        stroke-linecap="round" 
        fill="none" 
        opacity="0.6"/>
  
  <!-- Decorative flourishes bottom right -->
  <path d="M46 40 Q44 38, 42 40 Q40 42, 42 44 Q44 46, 46 44 Q48 42, 46 40" 
        stroke="url(#logoGradient)" 
        stroke-width="1" 
        stroke-linecap="round" 
        fill="none" 
        opacity="0.6"/>
  
  <!-- Central decorative swirls -->
  <path d="M4 24 Q6 22, 8 24 Q10 26, 8 28 Q6 30, 4 28 Q2 26, 4 24" 
        stroke="url(#logoGradient)" 
        stroke-width="0.8" 
        stroke-linecap="round" 
        fill="none" 
        opacity="0.5"/>
  
  <path d="M44 24 Q42 22, 40 24 Q38 26, 40 28 Q42 30, 44 28 Q46 26, 44 24" 
        stroke="url(#logoGradient)" 
        stroke-width="0.8" 
        stroke-linecap="round" 
        fill="none" 
        opacity="0.5"/>
  
  <!-- Elegant vine decorations -->
  <path d="M12 2 Q16 4, 20 2 Q24 0, 28 2 Q32 4, 36 2" 
        stroke="url(#logoGradient)" 
        stroke-width="0.8" 
        stroke-linecap="round" 
        fill="none" 
        opacity="0.7"/>
  
  <path d="M12 46 Q16 44, 20 46 Q24 48, 28 46 Q32 44, 36 46" 
        stroke="url(#logoGradient)" 
        stroke-width="0.8" 
        stroke-linecap="round" 
        fill="none" 
        opacity="0.7"/>
  
  <!-- Small decorative stars -->
  <circle cx="8" cy="8" r="0.5" fill="url(#logoGradient)" opacity="0.7"/>
  <circle cx="40" cy="8" r="0.5" fill="url(#logoGradient)" opacity="0.7"/>
  <circle cx="8" cy="40" r="0.5" fill="url(#logoGradient)" opacity="0.7"/>
  <circle cx="40" cy="40" r="0.5" fill="url(#logoGradient)" opacity="0.7"/>
</svg>
